<?xml version="1.0" encoding="UTF-8"?>
<svg width="375px" height="667px" viewBox="0 0 375 667" version="1.1" xmlns="http://www.w3.org/2000/svg" xmlns:xlink="http://www.w3.org/1999/xlink">
    <!-- Generator: Sketch 49.1 (51147) - http://www.bohemiancoding.com/sketch -->
    <title>Mobile Home Banner</title>
    <desc>Created with Sketch.</desc>
    <defs></defs>
    <g id="Home" stroke="none" stroke-width="1" fill="none" fill-rule="evenodd">
        <g id="Home---Mobile">
            <g id="Mobile-Home-Banner">
                <rect id="Rectangle" fill="#1B1723" x="0" y="0" width="375" height="667"></rect>
                <g id="rainbow" transform="translate(56.000000, 601.000000)" stroke-linecap="round" stroke-linejoin="round">
                    <path d="M9.52380952,15.9818432 C9.52380952,15.9818432 15.952381,-0.938791688 31.3730159,2.96597022 C46.7936508,6.87073212 43.047619,24.4659702 43.047619,24.4659702 L39.1746032,23.4897797 C39.1746032,23.4897797 42.0555556,9.9500972 30.1984127,6.9500972 C18.3412698,3.9500972 13.3888889,16.9580337 13.3888889,16.9580337 L9.52380952,15.9818432 Z" id="Shape" stroke="#86EDDF" stroke-width="1.74" fill="#86EDDF" fill-rule="nonzero"></path>
                    <path d="M46.2619048,27.3431856 C46.2619048,27.3431856 50.8968254,5.55747126 31.8095238,0.724137931 C12.7222222,-4.1091954 4.76190476,16.835249 4.76190476,16.835249 L7.55555556,17.5415982 C7.55555556,17.5415982 14.4365079,-0.585385878 30.9603175,3.5971538 C47.484127,7.77969349 43.468254,26.6130268 43.468254,26.6130268 L46.2619048,27.3431856 Z" id="Shape" stroke="#FFA4F6" stroke-width="1.62" fill="#FFA4F6" fill-rule="nonzero"></path>
                    <path d="M9.52380952,19.7659394 C9.52380952,19.7659394 15.4920635,4.05959022 29.8095238,7.68657434 C44.1269841,11.3135585 40.6507937,27.6548283 40.6507937,27.6548283 L37.0634921,26.7421299 C37.0634921,26.7421299 39.7380952,14.1707013 28.7222222,11.384987 C17.7063492,8.59927275 13.0952381,20.6786378 13.0952381,20.6786378 L9.52380952,19.7659394 Z" id="Shape" stroke="#5D76DD" stroke-width="1.62" fill="#5D76DD" fill-rule="nonzero"></path>
                    <path d="M6.34920635,17.989596 C6.34920635,17.989596 13.7301587,-1.43103889 31.4206349,3.05308809 C49.1111111,7.53721508 44.8174603,27.7276913 44.8174603,27.7276913" id="Shape" stroke="#1B1723" stroke-width="1.5"></path>
                    <path d="M8.73015873,18.2644652 C8.73015873,18.2644652 15.0793651,1.46287787 30.4206349,5.34383026 C45.7619048,9.22478264 42.015873,26.7009731 42.015873,26.7009731" id="Shape" stroke="#1B1723" stroke-width="1.5"></path>
                    <path d="M11.1111111,18.8459857 C11.1111111,18.8459857 16.6666667,4.28249363 29.9126984,7.64757299 C43.1587302,11.0126524 39.968254,26.1555095 39.968254,26.1555095" id="Shape" stroke="#1B1723" stroke-width="1.5"></path>
                    <path d="M14.2857143,20.1102518 C14.2857143,20.1102518 18.5396825,8.91183907 28.7460317,11.4991407 C38.952381,14.0864422 36.4761905,25.7372359 36.4761905,25.7372359" id="Shape" stroke="#1B1723" stroke-width="1.5"></path>
                    <path d="M14.4330276,18.7396144 C14.2250404,17.2909764 13.0985224,16.1462812 11.653399,15.9151342 C10.2082756,15.6839873 8.78090872,16.4201896 8.13144035,17.7316779 C5.40128162,15.4777096 1.90921812,15.9539001 0.631440347,17.7316779 C-0.646337431,19.5094556 0.0917578075,23.0650112 2.15524987,23.9142175 C3.04408737,24.2077572 4.01245615,24.1422499 4.85366257,23.7316779 C4.96924635,25.2332712 6.06847292,26.4752221 7.544906,26.7723543 C9.02133908,27.0694865 10.515418,26.3494382 11.2028689,25.0094556 C12.4662464,26.4067872 14.5494673,26.6977025 16.1473134,25.6999318 C17.9330276,24.4380271 17.782234,21.7316779 16.6711229,20.1840588 C16.1032389,19.470656 15.3170131,18.9632337 14.4330276,18.7396144 Z" id="Shape" stroke="#86EDDF" stroke-width="1.62" fill="#86EDDF" fill-rule="nonzero"></path>
                    <path d="M44.3651533,34.3585391 C43.4934678,35.5351545 41.9572162,36.0070899 40.5752959,35.5227805 C39.1933756,35.0384712 38.2878237,33.7107786 38.3413437,32.247428 C34.8730898,32.9299677 31.9921374,30.8426661 31.7619787,28.6363169 C31.5318199,26.4299677 33.8334072,23.6918724 36.0556295,23.9299677 C36.977708,24.0924726 37.7987854,24.6113479 38.3413437,25.3744121 C39.1529175,24.0929758 40.7214775,23.5128863 42.1715389,23.9579179 C43.6216002,24.4029495 44.5946943,25.7630863 44.5476929,27.279174 C46.3208569,26.650531 48.2893242,27.3870324 49.2143596,29.0252058 C50.1905501,30.9855232 48.7540421,33.3188566 47.0556295,34.1283804 C46.2093703,34.502228 45.2626139,34.583219 44.3651533,34.3585391 Z" id="Shape" stroke="#86EDDF" stroke-width="1.62" fill="#86EDDF" fill-rule="nonzero"></path>
                    <path d="M14.9747379,19.3179583 C14.7771437,17.9759999 13.7308584,16.9178823 12.3912068,16.7052103 C11.0515552,16.4925384 9.72901338,17.1746006 9.12553158,18.3893868 C6.60172206,16.3020852 3.36362682,16.7465297 2.17315063,18.3893868 C0.982674439,20.032244 1.68108714,23.3417678 3.59378555,24.1274821 C4.41686729,24.4008529 5.31427589,24.3410257 6.09378555,23.9608154 C6.19308508,25.3609843 7.21545597,26.5223307 8.59174031,26.7983285 C9.96802464,27.0743263 11.3591253,26.3969735 11.9906109,25.1433551 C13.1621993,26.4354588 15.0910439,26.7028895 16.569976,25.7782757 C18.2287062,24.611609 18.0937855,22.079863 17.054103,20.6671646 C16.5270982,20.0022237 15.7967076,19.5283062 14.9747379,19.3179583 Z" id="Shape" stroke="#1B1723" stroke-width="1.5"></path>
                    <path d="M42.6212925,33.595872 C41.8019492,34.6532701 40.3972206,35.0666151 39.1357588,34.6214993 C37.8742969,34.1763835 37.0400434,32.9729976 37.0657369,31.6355546 C33.8911337,32.2704752 31.208594,30.3339673 30.9704988,28.2942847 C30.7324036,26.2546022 32.8831972,23.7069832 34.9387528,23.9292054 C35.7914434,24.0760652 36.5508501,24.5556905 37.0498639,25.2625387 C37.8019379,24.0725157 39.2579407,23.5337702 40.6034821,23.9476402 C41.9490235,24.3615101 42.8505598,25.6254022 42.8038321,27.03238 C44.4420621,26.4456998 46.2655049,27.1136276 47.1371655,28.6196816 C48.0419274,30.4371419 46.708594,32.5879355 45.129229,33.3815863 C44.341043,33.7326577 43.457612,33.8081408 42.6212925,33.595872 Z" id="Shape" stroke="#1B1723" stroke-width="1.5"></path>
                </g>
                <g id="mountains" transform="translate(202.500000, 70.000000) rotate(-5.000000) translate(-202.500000, -70.000000) translate(180.000000, 51.000000)" stroke-linecap="round" stroke-linejoin="round">
                    <polygon id="Shape" stroke="#5D76DD" fill="#5D76DD" fill-rule="nonzero" points="0 36.5890909 12.6163636 6.54545455 35.3454545 36.5890909"></polygon>
                    <polygon id="Shape" stroke="#1B1723" stroke-width="1.5" points="0.818181818 35.1818182 12.5018182 7.36363636 33.5454545 35.1818182"></polygon>
                    <polyline id="Shape" stroke="#1B1723" stroke-width="1.5" points="8.18181818 18 10.8245455 19.6363636 14.0972727 17.1818182 17.1818182 18.8181818"></polyline>
                    <polygon id="Shape" stroke="#86EDDF" fill="#86EDDF" fill-rule="nonzero" points="9 37.1127273 27.1145455 0 44.3454545 37.1127273"></polygon>
                    <polygon id="Shape" stroke="#1B1723" stroke-width="1.5" points="9 35.1818182 25.7727273 0.818181818 41.7272727 35.1818182"></polygon>
                    <polyline id="Shape" stroke="#1B1723" stroke-width="1.5" points="30.4609091 11.4545455 27 14.04 23.7272727 11.5854545 19.6363636 14.04"></polyline>
                    <polygon id="Shape" stroke="#FFA4F6" fill="#FFA4F6" fill-rule="nonzero" points="2.45454545 36.5563636 25.8709091 18 37.8 36.5563636"></polygon>
                    <polygon id="Shape" stroke="#1B1723" stroke-width="1.5" points="3.27272727 35.1818182 24.9545455 18 36 35.1818182"></polygon>
                    <polyline id="Shape" stroke="#1B1723" stroke-width="1.5" points="30.0027273 25.9118182 26.5418182 28.4972727 23.2690909 26.0427273 19.1781818 28.4972727 16.3636364 25.3636364"></polyline>
                </g>
                <g id="clouds" transform="translate(49.000000, 81.000000)">
                    <circle id="Oval" fill="#FFA4F6" fill-rule="nonzero" cx="27.4323333" cy="19.599" r="10.199"></circle>
                    <path d="M39.95,21.9333333 L46.389,23.5391667" id="Shape" stroke="#FFA4F6" stroke-width="1.63" stroke-linecap="round" stroke-linejoin="round"></path>
                    <path d="M39.1666667,14.6248333 L45.4646667,12.5333333" id="Shape" stroke="#FFA4F6" stroke-width="1.63" stroke-linecap="round" stroke-linejoin="round"></path>
                    <path d="M35.25,8.61666667 L38.9786667,3.13333333" id="Shape" stroke="#FFA4F6" stroke-width="1.63" stroke-linecap="round" stroke-linejoin="round"></path>
                    <path d="M28.2,6.627 L28.5446667,0" id="Shape" stroke="#FFA4F6" stroke-width="1.63" stroke-linecap="round" stroke-linejoin="round"></path>
                    <path d="M20.9933333,8.60883333 L17.2333333,3.13333333" id="Shape" stroke="#FFA4F6" stroke-width="1.63" stroke-linecap="round" stroke-linejoin="round"></path>
                    <circle id="Oval" stroke="#1B1723" stroke-width="1.5" stroke-linecap="round" stroke-linejoin="round" cx="26.6333333" cy="19.5833333" r="9.4"></circle>
                    <path d="M0.454962694,26.9038903 C-0.370564102,25.332671 -0.0509350577,23.4041938 1.23735753,22.1833225 C2.52565011,20.9624511 4.46850907,20.7468449 5.99312936,21.655557 C5.71701077,18.9857951 7.2567853,16.4600508 9.75643202,15.4824843 C12.2560787,14.5049178 15.1008104,15.3159611 16.7091294,17.4647236 C19.286296,14.182557 23.610296,13.266057 26.5869627,14.8718903 C30.2686294,16.861557 31.717796,22.6112236 28.5296294,26.9038903 L0.454962694,26.9038903 Z" id="Shape" fill="#5D76DD" fill-rule="nonzero"></path>
                    <path d="M1.20531967,26.6729994 C0.440950551,25.2243698 0.735081967,23.4439539 1.92475884,22.3181401 C3.11443572,21.1923262 4.90835739,20.9967778 6.31265301,21.8398328 C6.02112518,19.3636899 7.43680254,17.0025844 9.75826592,16.0931451 C12.0797293,15.1837059 14.7224954,15.9549057 16.1904863,17.9701661 C18.5404863,14.9543328 22.551153,14.1004994 25.2928197,15.6201661 C28.684653,17.4453328 29.9928197,22.7484994 27.0788197,26.7043328 L1.20531967,26.6729994 Z" id="Shape" stroke="#1B1723" stroke-width="1.5" stroke-linecap="round" stroke-linejoin="round"></path>
                    <path d="M12.728131,35.520557 C9.53213104,31.2278903 10.989131,25.4782236 14.6629644,23.488557 C17.6474644,21.8827236 21.963631,22.7992236 24.548631,26.0813903 C26.1533356,23.9275073 29.0002877,23.1127955 31.5014986,24.0916892 C34.0027094,25.070583 35.5403709,27.6012922 35.2567977,30.2722236 C36.7817033,29.3563785 38.7299842,29.5685755 40.0219758,30.791223 C41.3139675,32.0138704 41.6332127,33.9474962 40.8027977,35.520557 C42.3543086,35.7570242 43.5601866,36.9948884 43.7559644,38.552057 C43.7687286,39.5198871 43.3898919,40.4518136 42.7054731,41.1362324 C42.0210543,41.8206511 41.0891278,42.1994879 40.1212977,42.1867236 L15.313131,42.1867236 L12.728131,35.520557 Z" id="Shape" fill="#86EDDF" fill-rule="nonzero"></path>
                    <path d="M13.3634729,34.5214448 C10.4181396,30.5656115 11.7968063,25.2624448 15.1494729,23.4294448 C17.8989729,21.9489448 21.8861396,22.7949448 24.2596396,25.7794448 C25.7297142,23.774872 28.3643864,23.0100213 30.6793399,23.9157928 C32.9942933,24.8215642 34.410311,27.1713277 34.1296396,29.6412781 C35.5360326,28.8078264 37.3246964,29.0086909 38.5111995,30.1333212 C39.6977027,31.2579514 39.9939818,33.0333059 39.2369729,34.4822781 C40.6685231,34.6974706 41.7840813,35.835404 41.9708063,37.2709448 C41.9814185,38.1633383 41.631601,39.0222819 41.0005389,39.653344 C40.3694768,40.2844061 39.5105331,40.6342237 38.6181396,40.6236115 L15.7291396,40.6236115 L13.3634729,34.5214448 Z" id="Shape" stroke="#1B1723" stroke-width="1.5" stroke-linecap="round" stroke-linejoin="round"></path>
                    <path d="M2.02162936,42.5742958 C1.19610256,41.0030765 1.51573161,39.0745993 2.80402419,37.853728 C4.09231678,36.6328567 6.03517573,36.4172505 7.55979603,37.3259625 C7.27937728,34.6546455 8.81774555,32.125046 11.3186272,31.1451684 C13.8195088,30.1652908 16.6668535,30.9765116 18.275796,33.1272958 C20.8529627,29.8529625 25.1769627,28.9286292 28.1536294,30.5422958 C31.835296,32.5241292 33.2844627,38.2816292 30.096296,42.5742958 L2.02162936,42.5742958 Z" id="Shape" fill="#5D76DD" fill-rule="nonzero"></path>
                    <path d="M2.77198634,43.1229994 C2.00761722,41.6743698 2.30174863,39.8939539 3.49142551,38.7681401 C4.68110239,37.6423262 6.47502406,37.4467778 7.87931967,38.2898328 C7.58779184,35.8136899 9.0034692,33.4525844 11.3249326,32.5431451 C13.646396,31.6337059 16.289162,32.4049057 17.757153,34.4201661 C20.107153,31.4043328 24.1178197,30.5504994 26.8594863,32.0701661 C30.2513197,33.8953328 31.5594863,39.1984994 28.6454863,43.1543328 L2.77198634,43.1229994 Z" id="Shape" stroke="#1B1723" stroke-width="1.5" stroke-linecap="round" stroke-linejoin="round"></path>
                </g>
                <g id="unicorn" transform="translate(242.000000, 161.000000)">
                    <path d="M11.8573181,42.5688697 C9.68605052,44.0715458 -0.322963565,42.1054895 0.00802235083,37.4849261 C0.339008266,32.8643627 7.1109801,34.2280247 8.07083925,30.5474613 C9.03069841,26.8668979 5.42295193,25.7614049 5.86647306,22.9546444 C6.35633221,19.8698556 10.3149238,20.518588 13.3864731,17.0432359 C16.8022477,13.1773204 11.883797,9.66225001 17.1133745,6.76281339 C22.3429519,3.86337677 24.5605576,9.6556303 26.0499942,10.6088697" id="Shape" fill="#5D76DD" fill-rule="nonzero"></path>
                    <path d="M11.6681574,43.2532394 C11.6681574,43.2532394 7.51097426,19.7929577 25.5232278,11.233662 C26.363932,10.8364789 27.9129461,7.22211268 28.7073123,6.67267606 L29.7664672,10.3201408 L39.9409743,0 L35.3866081,12.6370423 L46.5077348,19.0515493 L42.9595658,23.0233803 L34.6518193,23.6853521 C34.6518193,23.6853521 31.0109743,24.744507 28.7735095,20.4483099 C28.7735095,20.4483099 26.7147771,26.9753521 29.2501292,39.0894366 L11.6681574,43.2532394 Z" id="Shape" stroke="#86EDDF" fill="#86EDDF" fill-rule="nonzero" stroke-linecap="round" stroke-linejoin="round"></path>
                    <circle id="Oval" fill="#5D76DD" fill-rule="nonzero" cx="33.3832394" cy="16.1719718" r="1"></circle>
                    <path d="M12.299278,41.3732394 C12.299278,41.3732394 8.45984139,19.7466197 25.0687146,11.8625352 C25.836602,11.4984507 27.2664611,8.16211268 28.0012498,7.65901408 L28.9809682,11.0152113 L39.1819541,0 L34.1575879,13.1533803 L45.576602,18.7271831 L42.3064611,22.4077465 L33.4823766,23.3742254 C33.4823766,23.3742254 30.1195597,24.3473239 28.0608273,20.3953521 C28.0608273,20.3953521 26.1675879,26.4060563 28.4977287,37.5735211 L12.299278,41.3732394 Z" id="Shape" stroke="#1B1723" stroke-width="1.74" stroke-linecap="round" stroke-linejoin="round"></path>
                    <path d="M12.2551274,41.025463 C10.2692119,42.4089841 1.00160627,40.601801 1.33259219,36.3453221 C1.6635781,32.0888433 7.8794936,33.33997 8.76653585,29.9440545 C9.6535781,26.548139 6.32385979,25.5419418 6.73428233,22.953632 C7.18442317,20.1071531 10.831888,20.7029278 13.6651274,17.4989841 C16.8161133,13.9375757 12.2749866,10.7005334 17.1007612,8.0261672 C21.9265358,5.351801 23.9654091,10.6740545 25.3356908,11.5743362" id="Shape" stroke="#1B1723" stroke-width="1.74" stroke-linecap="round" stroke-linejoin="round"></path>
                    <path d="M35.084507,5.29577465 L36.2826761,7.34788732" id="Shape" stroke="#1B1723" stroke-width="1.74" stroke-linecap="round" stroke-linejoin="round"></path>
                    <path d="M32.4366197,7.94366197 L34.8395775,12.054507" id="Shape" stroke="#1B1723" stroke-width="1.74" stroke-linecap="round" stroke-linejoin="round"></path>
                </g>
                <g id="pizza" transform="translate(237.000000, 413.000000)">
                    <path d="M33.4046897,13.9190498 C33.5350752,14.0738047 33.6013304,14.2725701 33.5898749,14.4746054 C33.5782939,14.6907545 33.4727468,14.8910235 33.300986,15.0227535 C26.8272199,23.6541356 18.3991775,30.6275792 8.70839343,35.3709017 C8.55259729,35.514842 8.34256992,35.5850882 8.13152521,35.5638421 C7.9204805,35.5425959 7.72866915,35.4318962 7.60468973,35.2597906 C7.53725915,35.1666488 7.48938389,35.0608193 7.46394899,34.9486794 L6.72320825,31.6153461 L5.10098602,24.2079387 L0.0343193581,0.963494258 C-0.0564411365,0.675641512 0.0365238942,0.361507446 0.269321533,0.169408695 C0.502119172,-0.0226900556 0.828188857,-0.0543328879 1.09357862,0.0894201839 L4.05654158,1.34127204 L10.2046897,3.96349426 L33.1158008,13.7116424 C33.2284269,13.7546065 33.32797,13.8260733 33.4046897,13.9190498 Z" id="Shape" stroke="#86EDDF" stroke-width="1.57" fill="#86EDDF" fill-rule="nonzero"></path>
                    <circle id="Oval" stroke="#FFA4F6" stroke-width="1.51" fill="#FFA4F6" fill-rule="nonzero" cx="29.6296296" cy="18.5185185" r="2.96296296"></circle>
                    <path d="M34.6296296,12.6629442 C33.6148148,13.1592405 28.0592593,21.6036849 22.037037,26.4851664 C17.5396718,30.1276762 12.5526087,33.1199141 7.22222222,35.3740553 C6.9079683,35.636473 6.70862268,36.0112427 6.66666667,36.4184997 C6.66666667,36.8184997 7.8962963,41.0481294 9.8962963,41.6036849 C11.8962963,42.1592405 20.6814815,36.7592405 25.962963,32.6407219 C32.5185185,27.5222034 39.6592593,17.6333145 39.7185185,17.0110923 C39.7574522,16.602084 39.6322078,16.1943736 39.3703704,15.877759 C38.1333333,14.477759 35.6444444,12.1592405 34.6296296,12.6629442 Z" id="Shape" stroke="#5D76DD" stroke-width="1.57" fill="#5D76DD" fill-rule="nonzero"></path>
                    <circle id="Oval" stroke="#FFA4F6" stroke-width="1.5" fill="#FFA4F6" fill-rule="nonzero" cx="16.2962963" cy="14.8148148" r="3.7037037"></circle>
                    <path d="M9.7037037,25.0959393 C10.6489952,26.2399355 10.8577074,27.8234069 10.2411233,29.1732688 C9.62453913,30.5231307 8.29102153,31.402149 6.80740741,31.4366801 L5.18518519,24.0292727 C6.76073471,23.3378111 8.60371438,23.7728751 9.7037037,25.0959393 Z" id="Shape" stroke="#FFA4F6" stroke-width="1.57" fill="#FFA4F6" fill-rule="nonzero"></path>
                    <path d="M10.6294567,3.36296296 C10.5342113,4.25686258 10.0895772,5.07690622 9.39241971,5.64444444 C8.00560574,6.771007 5.99182142,6.66778673 4.72746094,5.40533327 C3.46310045,4.14287982 3.35684062,2.12925359 4.48130859,0.740740741 L10.6294567,3.36296296 Z" id="Shape" stroke="#FFA4F6" stroke-width="1.57" fill="#FFA4F6" fill-rule="nonzero"></path>
                    <path d="M33.3943462,14.0519934 C33.5250197,14.203964 33.5885331,14.4024009 33.5703874,14.6020039 C33.5522417,14.8016069 33.4539857,14.9853375 33.2980499,15.1112527 C27.106514,23.3651278 19.0466877,30.0338408 9.77953137,34.5705119 C9.6234323,34.7025637 9.41969366,34.7642214 9.2165684,34.7408823 C9.02399882,34.7170819 8.84845622,34.6186716 8.72767951,34.4668082 C8.66163894,34.3755857 8.61384922,34.2724605 8.58693877,34.1631045 L7.89804988,30.9779193 L6.34990174,23.8594008 L1.49804988,1.63717858 C1.43988015,1.36659707 1.53740485,1.08615649 1.750912,0.910052055 C1.96441915,0.73394762 2.2582916,0.691556969 2.5128647,0.800141546 L5.32027211,2.00014155 L11.2017536,4.50384525 L33.1276795,13.844586 C33.2304407,13.8937546 33.3213954,13.9644971 33.3943462,14.0519934 Z" id="Shape" stroke="#1B1723" stroke-width="1.5"></path>
                    <circle id="Oval" stroke="#1B1723" stroke-width="1.51" cx="29.6296296" cy="18.5185185" r="2.96296296"></circle>
                    <path d="M34.1925926,13.398686 C33.2148148,13.8727601 27.9111111,21.9542416 22.1333333,26.6209083 C17.8212808,30.1040804 13.0412264,32.9641338 7.93333333,35.1172046 C7.63724676,35.3746609 7.44939033,35.7344986 7.40740741,36.124612 C7.40740741,36.5023897 8.57777778,40.5690564 10.4962963,41.1023897 C12.4148148,41.6357231 20.8074074,36.4727601 25.8592593,32.5320194 C32.1333333,27.6431305 38.9555556,18.1838712 39.0148148,17.5912786 C39.0532112,17.198402 38.9332253,16.806448 38.6814815,16.5023897 C37.5407407,15.1394268 35.162963,12.924612 34.1925926,13.398686 Z" id="Shape" stroke="#1B1723" stroke-width="1.5" fill="#5D76DD" fill-rule="nonzero"></path>
                    <circle id="Oval" stroke="#1B1723" stroke-width="1.5" cx="16.2962963" cy="15.5555556" r="3.7037037"></circle>
                    <path d="M10.2444444,25.0603528 C11.1466902,26.154295 11.3451391,27.6673622 10.7555124,28.9569734 C10.1658857,30.2465847 8.89169534,31.0863425 7.47407407,31.119612 L5.92592593,24.0010935 C7.44082828,23.3546682 9.20060023,23.7863103 10.2444444,25.0603528 Z" id="Shape" stroke="#1B1723" stroke-width="1.5"></path>
                    <path d="M11.0867059,4.68888889 C11.0061734,5.55875489 10.5790366,6.35963633 9.90152067,6.91111111 C8.57741297,8.0056207 6.6383388,7.91455639 5.42263509,6.70077019 C4.20693138,5.486984 4.11280629,3.54805598 5.20522437,2.22222222 L11.0867059,4.68888889 Z" id="Shape" stroke="#1B1723" stroke-width="1.5"></path>
                </g>
                <g id="boston" transform="translate(292.000000, 538.000000)">
                    <polygon id="Shape" stroke="#5D76DD" fill="#5D76DD" fill-rule="nonzero" stroke-linecap="round" stroke-linejoin="round" points="39.8745098 41.5686275 28.2352941 41.5686275 28.2352941 2.49411765 39.8745098 0"></polygon>
                    <polygon id="Shape" stroke="#1B1723" stroke-width="1.5" stroke-linecap="round" stroke-linejoin="round" points="38.4313725 40.7843137 27.4509804 40.7843137 27.4509804 3.92156863 38.4313725 1.56862745"></polygon>
                    <rect id="Rectangle-path" stroke="#1B1723" stroke-width="1.5" stroke-linecap="round" stroke-linejoin="round" x="33.7254902" y="4.70588235" width="1.56862745" height="36.0784314"></rect>
                    <rect id="Rectangle-path" stroke="#FFA4F6" fill="#FFA4F6" fill-rule="nonzero" stroke-linecap="round" stroke-linejoin="round" x="17.254902" y="13.3333333" width="12.4705882" height="28.2666667"></rect>
                    <rect id="Rectangle-path" stroke="#FFA4F6" fill="#FFA4F6" fill-rule="nonzero" stroke-linecap="round" stroke-linejoin="round" x="17.254902" y="7.84313725" width="12.4705882" height="3.3254902"></rect>
                    <rect id="Rectangle-path" stroke="#FFA4F6" fill="#FFA4F6" fill-rule="nonzero" stroke-linecap="round" stroke-linejoin="round" x="18.8235294" y="10.9803922" width="9.14509804" height="2.49411765"></rect>
                    <path d="M23.5294118,7.34117647 L23.5294118,2.35294118" id="Shape" stroke="#FFA4F6" stroke-width="1.59" stroke-linecap="round" stroke-linejoin="round"></path>
                    <rect id="Rectangle-path" stroke="#1B1723" stroke-width="1.5" stroke-linecap="round" stroke-linejoin="round" x="17.254902" y="14.1176471" width="11.7647059" height="26.6666667"></rect>
                    <rect id="Rectangle-path" stroke="#1B1723" stroke-width="1.5" stroke-linecap="round" stroke-linejoin="round" x="17.254902" y="8.62745098" width="11.7647059" height="3.1372549"></rect>
                    <rect id="Rectangle-path" stroke="#1B1723" stroke-width="1.5" stroke-linecap="round" stroke-linejoin="round" x="18.8235294" y="11.7647059" width="8.62745098" height="2.35294118"></rect>
                    <rect id="Rectangle-path" stroke="#86EDDF" fill="#86EDDF" fill-rule="nonzero" stroke-linecap="round" stroke-linejoin="round" x="0" y="23.5294118" width="21.2" height="18.2901961"></rect>
                    <path d="M7.05882353,23.3960784 C7.05882353,20.8707293 9.10602346,18.8235294 11.6313725,18.8235294 C14.1567216,18.8235294 16.2039216,20.8707293 16.2039216,23.3960784" id="Shape" fill="#86EDDF" fill-rule="nonzero"></path>
                    <path d="M10.9803922,18.3215686 L10.9803922,13.3333333" id="Shape" stroke="#86EDDF" stroke-width="1.59" stroke-linecap="round" stroke-linejoin="round"></path>
                    <rect id="Rectangle-path" stroke="#1B1723" stroke-width="1.5" stroke-linecap="round" stroke-linejoin="round" x="0.784313725" y="23.5294118" width="20" height="17.254902"></rect>
                    <path d="M6.2745098,23.1372549 C6.2745098,20.7548501 8.20583049,18.8235294 10.5882353,18.8235294 C12.9706401,18.8235294 14.9019608,20.7548501 14.9019608,23.1372549" id="Shape" stroke="#1B1723" stroke-width="1.5" stroke-linecap="round" stroke-linejoin="round"></path>
                </g>
                <g id="bike" transform="translate(110.000000, 236.000000)" stroke-linecap="round" stroke-linejoin="round">
                    <g id="Group" stroke-width="1.56">
                        <circle id="Oval" stroke="#FFA4F6" fill="#5D76DD" fill-rule="nonzero" cx="8.44811321" cy="22.0330189" r="8.44811321"></circle>
                        <circle id="Oval" stroke="#FFA4F6" fill="#5D76DD" fill-rule="nonzero" cx="35.6179245" cy="17.7877358" r="8.44811321"></circle>
                        <polygon id="Shape" stroke="#86EDDF" points="13.0669811 7.64150943 7.64150943 22.9245283 20.5216981 20.7424528"></polygon>
                        <polygon id="Shape" stroke="#86EDDF" points="20.9122642 20.5386792 28.2650943 5.09433962 13.5849057 7.29339623"></polygon>
                        <polyline id="Shape" stroke="#86EDDF" points="35.6603774 17.8981132 26.3207547 0.916981132 31.7207547 0"></polyline>
                        <path d="M10.1886792,3.39622642 L19.545283,20.3433962" id="Shape" stroke="#86EDDF"></path>
                        <path d="M9.55696997,3.66792453 C9.06045718,3.74996234 8.5906014,3.4165163 8.50413978,2.92075472 C8.46238786,2.68190329 8.51784944,2.43627234 8.65818005,2.23853375 C8.79851066,2.04079517 9.0120646,1.90735879 9.25130959,1.86792453 L15.7041398,1.69811321 L9.55696997,3.66792453 Z" id="Shape" stroke="#FFA4F6" fill="#FFA4F6" fill-rule="nonzero"></path>
                    </g>
                    <g id="Group" transform="translate(1.698113, 1.698113)" stroke="#1B1723" stroke-width="1.5">
                        <circle id="Oval" cx="8.1254717" cy="20.8613208" r="8.1254717"></circle>
                        <circle id="Oval" cx="34.4462264" cy="16.6160377" r="8.1254717"></circle>
                        <polygon id="Shape" points="12.8632075 6.79245283 7.64150943 21.4811321 20.0292453 19.3839623"></polygon>
                        <polygon id="Shape" points="19.7745283 19.9443396 26.8471698 5.09433962 12.7358491 7.20849057"></polygon>
                        <polyline id="Shape" points="34.4632075 17.1424528 25.4716981 0.849056604 30.6679245 0"></polyline>
                        <path d="M10.1886792,2.54716981 L19.1886792,18.840566" id="Shape"></path>
                        <path d="M8.6690152,2.74245283 C8.43829502,2.78918045 8.19853048,2.73802343 8.00697397,2.60119735 C7.81541746,2.46437127 7.68926421,2.25415844 7.65863784,2.02075472 C7.61184796,1.79132258 7.66188538,1.55275237 7.79691843,1.36145555 C7.93195148,1.17015873 8.13999125,1.04311959 8.37184539,1.01037736 L14.5869397,0.849056604 L8.6690152,2.74245283 Z" id="Shape" fill="#000000" fill-rule="nonzero"></path>
                    </g>
                </g>
                <g id="doughnut" transform="translate(39.000000, 470.000000)">
                    <path d="M34.585715,6.83423038 C34.0764686,6.22715775 33.5251049,5.65669922 32.935715,5.12708753 C27.1708539,-0.119450797 18.8532412,-1.47032094 11.7242945,1.68212372 C4.59534784,4.83456837 -0.00208752579,11.896517 7.11086951e-07,19.6913732 C7.11086951e-07,20.0485161 7.11086951e-07,20.405659 7.11086951e-07,20.755659 C0.0555068905,21.7448106 0.184433237,22.7284709 0.385714997,23.6985161 C2.04915825,31.7744494 8.56938556,37.9580031 16.7220893,39.1913576 C24.8747931,40.4247121 32.9323086,36.4465034 36.9101263,29.2239893 C40.8879439,22.0014753 39.943112,13.0652013 34.5428579,6.83423038 L34.585715,6.83423038 Z M19.7000007,25.2199447 C17.2151879,25.2172657 15.0391038,23.5530293 14.385715,21.155659 C14.2613824,20.6895188 14.1965812,20.2095099 14.1928579,19.7270875 C14.1863176,19.3534833 14.217427,18.9801704 14.285715,18.6128018 C14.8682479,15.7743305 17.5506945,13.8727961 20.4219386,14.2629518 C23.2931827,14.6531075 25.3709589,17.2014794 25.17495,20.0924731 C24.9789411,22.9834667 22.5762027,25.2280605 19.6785721,25.2270875 L19.7000007,25.2199447 Z" id="Shape" fill="#FFA4F6" fill-rule="nonzero"></path>
                    <path d="M33.5143455,8.33925139 C33.0494769,7.78970652 32.5483575,7.27188321 32.0143455,6.78925139 C26.7785614,2.02776036 19.2248781,0.807589394 12.7562198,3.67842389 C6.28756146,6.54925839 2.12466783,12.9693258 2.1429169,20.0463942 C2.1429169,20.3654419 2.1429169,20.6868704 2.1429169,21.01068 C2.19391367,21.9085344 2.31089607,22.8014204 2.4929169,23.6821085 C4.01066168,31.0034463 9.92895327,36.6040314 17.3228197,37.7159105 C24.7166862,38.8277896 32.0203953,35.2155102 35.624266,28.6643536 C39.2281367,22.1131971 38.36901,14.0104426 33.4714883,8.36067996 L33.5143455,8.33925139 Z M20.0000598,25.0463942 C17.7478485,25.0460368 15.7738584,23.5399554 15.1786312,21.3678228 C14.611814,19.2993655 15.4272976,17.0998057 17.2055319,15.9007728 C18.9837663,14.7017399 21.328627,14.7703338 23.0337303,16.0712644 C24.7388335,17.372195 25.4243456,19.6156633 24.7375844,21.6474498 C24.0508232,23.6792364 22.1447735,25.0467347 20.0000598,25.0463942 Z" id="Shape" stroke="#1B1723" stroke-width="1.5"></path>
                    <rect id="Rectangle-path" stroke="#1B1723" stroke-width="1.5" fill="#86EDDF" fill-rule="nonzero" transform="translate(21.569139, 7.289238) rotate(10.390000) translate(-21.569139, -7.289238) " x="20.4977103" y="4.43209505" width="2.14285714" height="5.71428571" rx="1.07142857"></rect>
                    <rect id="Rectangle-path" stroke="#1B1723" stroke-width="1.5" fill="#86EDDF" fill-rule="nonzero" transform="translate(11.484752, 11.170861) rotate(-52.140000) translate(-11.484752, -11.170861) " x="10.413323" y="8.31371841" width="2.14285714" height="5.71428571" rx="1.07142857"></rect>
                    <path d="M14.9066604,21.3930639 L12.8638032,20.6430639 C12.3673129,20.4737891 12.0681961,19.968004 12.1590509,19.4513784 C12.2499058,18.9347529 12.7036358,18.561365 13.2280889,18.5716354 C13.3546269,18.5720896 13.4801875,18.5938212 13.5995175,18.6359211 L14.8280889,19.0859211 C14.6720807,19.8504131 14.6990033,20.6409568 14.9066604,21.3930639 Z" id="Shape" stroke="#1B1723" stroke-width="1.5" fill="#FFA4F6" fill-rule="nonzero"></path>
                    <rect id="Rectangle-path" stroke="#1B1723" stroke-width="1.5" fill="#5D76DD" fill-rule="nonzero" transform="translate(9.742290, 26.484752) rotate(37.860000) translate(-9.742290, -26.484752) " x="8.67086127" y="23.6276087" width="2.14285714" height="5.71428571" rx="1.07142857"></rect>
                    <path d="M5.32857143,20.3604236 C5.33180305,20.6437689 5.22114663,20.9165499 5.02142857,21.1175665 L2.49285714,23.6461379 C2.31083631,22.7654498 2.19385392,21.8725638 2.14285714,20.9747094 L3.52142857,19.5961379 C3.94134269,19.1822397 4.61580016,19.1822397 5.03571429,19.5961379 C5.23199633,19.8012424 5.33753538,20.0766735 5.32857143,20.3604236 Z" id="Shape" stroke="#1B1723" stroke-width="1.5" fill="#FFA4F6" fill-rule="nonzero"></path>
                    <rect id="Rectangle-path" stroke="#1B1723" stroke-width="1.5" fill="#5D76DD" fill-rule="nonzero" transform="translate(31.044339, 18.687220) rotate(-33.580000) translate(-31.044339, -18.687220) " x="29.9729104" y="15.8300776" width="2.14285714" height="5.71428571" rx="1.07142857"></rect>
                    <path d="M33.4117636,8.01428571 L31.8974779,9.79285714 C31.6422882,10.0837734 31.2512812,10.2164491 30.8717454,10.1409065 C30.4922097,10.0653638 30.1818057,9.79307965 30.0574597,9.42662073 C29.9331136,9.0601618 30.0137167,8.65520198 30.2689064,8.36428571 L31.9117636,6.42857143 C32.4469828,6.92267922 32.9481292,7.4524625 33.4117636,8.01428571 Z" id="Shape" stroke="#1B1723" stroke-width="1.5" fill="#FFA4F6" fill-rule="nonzero"></path>
                    <rect id="Rectangle-path" stroke="#1B1723" stroke-width="1.5" fill="#5D76DD" fill-rule="nonzero" transform="translate(27.777919, 28.492205) rotate(45.000000) translate(-27.777919, -28.492205) " x="26.7064909" y="25.6350624" width="2.14285714" height="5.71428571" rx="1.07142857"></rect>
                    <rect id="Rectangle-path" stroke="#1B1723" stroke-width="1.5" fill="#86EDDF" fill-rule="nonzero" transform="translate(17.777919, 32.777919) rotate(135.000000) translate(-17.777919, -32.777919) " x="16.7064909" y="29.9207766" width="2.14285714" height="5.71428571" rx="1.07142857"></rect>
                </g>
                <g id="wand" transform="translate(162.000000, 504.000000)">
                    <path d="M24.219,15.3 L0,39.519" id="Shape" stroke="#FFA4F6" stroke-width="1.5" stroke-linecap="round" stroke-linejoin="round"></path>
                    <polygon id="Shape" fill="#FFA4F6" fill-rule="nonzero" points="30.123 16.614 27.306 23.13 24.048 17.109 17.1 16.668 22.194 12.096 19.584 6.957 26.262 8.91 32.274 4.5 30.924 11.286 36.9 15.066"></polygon>
                    <polygon id="Shape" stroke="#1B1723" stroke-width="1.5" stroke-linecap="round" stroke-linejoin="round" points="29.907 15.579 27.333 21.537 24.354 16.029 18 15.633 22.662 11.457 20.277 6.75 26.379 8.541 31.869 4.5 30.636 10.71 36.099 14.166"></polygon>
                    <path d="M25.119,16.2 L0.9,40.419" id="Shape" stroke="#1B1723" stroke-width="1.5" stroke-linecap="round" stroke-linejoin="round"></path>
                    <polygon id="Shape" stroke="#86EDDF" stroke-width="0.63" fill="#86EDDF" fill-rule="nonzero" stroke-linecap="round" stroke-linejoin="round" points="36.963 6.858 36.99 5.4 37.737 6.363 39.015 6.642 37.908 7.371 37.782 8.73 37.152 7.731 36 7.614"></polygon>
                    <polygon id="Shape" stroke="#86EDDF" stroke-width="0.63" fill="#86EDDF" fill-rule="nonzero" stroke-linecap="round" stroke-linejoin="round" points="40.563 1.458 40.59 0 41.337 0.963 42.615 1.242 41.508 1.971 41.382 3.33 40.761 2.331 39.6 2.214"></polygon>
                    <polygon id="Shape" stroke="#FFA4F6" stroke-width="0.63" fill="#FFA4F6" fill-rule="nonzero" stroke-linecap="round" stroke-linejoin="round" points="42.363 12.258 42.39 10.8 43.137 11.763 44.415 12.042 43.308 12.771 43.182 14.13 42.561 13.131 41.4 13.014"></polygon>
                </g>
                <g id="Group" transform="translate(53.000000, 310.000000)">
                    <path d="M0,25.4086604 C0,12.7428958 9.68888889,3 22.7083333,3 C33.4266667,3 38.9372222,9.15020298 38.9372222,9.15020298 L34.0322222,17.188092 C34.0322222,17.188092 29.1877778,12.7428958 23.1927778,12.7428958 C14.8966667,12.7428958 10.9605556,18.8930988 10.9605556,25.165088 C10.9605556,31.6197564 15.1994444,38.2571042 23.1927778,38.2571042 C29.7327778,38.2571042 34.6983333,32.8985115 34.6983333,32.8985115 L40.1483333,40.6928281 C40.1483333,40.6928281 34.0322222,48 22.7083333,48 C9.14388889,48 0,38.3179973 0,25.4086604 Z M70.9105556,47.2692828 L68.2461111,38.135318 L54.7422222,38.135318 L52.1383333,47.2692828 L41.2383333,47.2692828 L55.9533333,3.73071719 L67.0955556,3.73071719 L81.8105556,47.2692828 L70.9105556,47.2692828 Z M61.585,13.6562923 L61.4638889,13.6562923 C61.4638889,13.6562923 60.495,18.405954 59.7077778,21.1461434 L57.225,29.6102842 L65.7633333,29.6102842 L63.3411111,21.1461434 C62.5538889,18.405954 61.585,13.6562923 61.585,13.6562923 Z M86.655,47.2692828 L86.655,3.73071719 L101.733333,3.73071719 C106.153889,3.73071719 108.273333,4.03518268 110.150556,4.76589986 C115.055556,6.65358593 118.143889,11.0987821 118.143889,17.4316644 C118.143889,22.0595399 115.963889,27.1136671 111.664444,29.3058187 L111.664444,29.4276049 C111.664444,29.4276049 112.27,30.2192152 113.299444,32.0460081 L121.716667,47.2692828 L109.908333,47.2692828 L102.217778,32.594046 L97.2522222,32.594046 L97.2522222,47.2692828 L86.655,47.2692828 Z M97.2522222,23.4600812 L101.854444,23.4600812 C105.245556,23.4600812 107.365,21.5723951 107.365,18.1014885 C107.365,14.8132612 106.153889,12.864682 100.825,12.864682 L97.2522222,12.864682 L97.2522222,23.4600812 Z M127.953889,47.2692828 L127.953889,3.73071719 L143.032222,3.73071719 C147.452778,3.73071719 149.572222,4.03518268 151.449444,4.76589986 C156.354444,6.65358593 159.442778,11.0987821 159.442778,17.4316644 C159.442778,22.0595399 157.262778,27.1136671 152.963333,29.3058187 L152.963333,29.4276049 C152.963333,29.4276049 153.568889,30.2192152 154.598333,32.0460081 L163.015556,47.2692828 L151.207222,47.2692828 L143.516667,32.594046 L138.551111,32.594046 L138.551111,47.2692828 L127.953889,47.2692828 Z M138.551111,23.4600812 L143.153333,23.4600812 C146.544444,23.4600812 148.663889,21.5723951 148.663889,18.1014885 C148.663889,14.8132612 147.452778,12.864682 142.123889,12.864682 L138.551111,12.864682 L138.551111,23.4600812 Z M169.252778,47.2692828 L169.252778,3.73071719 L179.85,3.73071719 L179.85,47.2692828 L169.252778,47.2692828 Z M190.023333,47.2692828 L190.023333,3.73071719 L217.152222,3.73071719 L217.152222,12.864682 L200.620556,12.864682 L200.620556,20.7807848 L213.821667,20.7807848 L213.821667,29.9147497 L200.620556,29.9147497 L200.620556,38.135318 L218,38.135318 L218,47.2692828 L190.023333,47.2692828 Z" id="CARRIE" fill="#86EDDF"></path>
                    <path d="M227,13.40504 L227,0.221266134 L230.230933,0.221266134 L233.845196,6.3798402 C234.356304,7.24646589 234.940427,8.62937923 234.940427,8.62937923 L234.976935,8.62937923 C234.976935,8.62937923 234.830904,7.2095882 234.830904,6.3798402 L234.830904,0.221266134 L238.025329,0.221266134 L238.025329,13.40504 L234.81265,13.40504 L231.180133,7.26490473 C230.669025,6.39827904 230.084902,5.0153657 230.084902,5.0153657 L230.048394,5.0153657 C230.048394,5.0153657 230.194425,6.43515673 230.194425,7.26490473 L230.194425,13.40504 L227,13.40504 Z M240.806,6.73017824 C240.806,2.95021512 243.690109,0 247.632942,0 C251.575775,0 254.459884,2.95021512 254.459884,6.73017824 C254.459884,10.6023356 251.575775,13.6263061 247.632942,13.6263061 C243.690109,13.6263061 240.806,10.6023356 240.806,6.73017824 Z M244.109948,6.73017824 C244.109948,8.97971727 245.679779,10.676091 247.632942,10.676091 C249.586104,10.676091 251.155936,8.97971727 251.155936,6.73017824 C251.155936,4.57283344 249.586104,2.95021512 247.632942,2.95021512 C245.679779,2.95021512 244.109948,4.57283344 244.109948,6.73017824 Z M256.346116,6.73017824 C256.346116,2.95021512 259.230225,0 263.173058,0 C267.115891,0 270,2.95021512 270,6.73017824 C270,10.6023356 267.115891,13.6263061 263.173058,13.6263061 C259.230225,13.6263061 256.346116,10.6023356 256.346116,6.73017824 Z M259.650064,6.73017824 C259.650064,8.97971727 261.219895,10.676091 263.173058,10.676091 C265.12622,10.676091 266.696052,8.97971727 266.696052,6.73017824 C266.696052,4.57283344 265.12622,2.95021512 263.173058,2.95021512 C261.219895,2.95021512 259.650064,4.57283344 259.650064,6.73017824 Z M227,30 L227,16.8162262 L230.230933,16.8162262 L233.845196,22.9748002 C234.356304,23.8414259 234.940427,25.2243393 234.940427,25.2243393 L234.976935,25.2243393 C234.976935,25.2243393 234.830904,23.8045482 234.830904,22.9748002 L234.830904,16.8162262 L238.025329,16.8162262 L238.025329,30 L234.81265,30 L231.180133,23.8598648 C230.669025,22.9932391 230.084902,21.6103258 230.084902,21.6103258 L230.048394,21.6103258 C230.048394,21.6103258 230.194425,23.0301168 230.194425,23.8598648 L230.194425,30 L227,30 Z M250.255412,30 L249.452243,27.2341733 L245.381633,27.2341733 L244.596717,30 L241.311023,30 L245.74671,16.8162262 L249.10542,16.8162262 L253.541107,30 L250.255412,30 Z M247.444319,19.8217578 L247.407811,19.8217578 C247.407811,19.8217578 247.115749,21.2599877 246.878449,22.0897357 L246.130041,24.6527351 L248.703835,24.6527351 L247.97368,22.0897357 C247.73638,21.2599877 247.444319,19.8217578 247.444319,19.8217578 Z M256.826801,30 L256.826801,16.8162262 L260.057733,16.8162262 L263.671997,22.9748002 C264.183105,23.8414259 264.767228,25.2243393 264.767228,25.2243393 L264.803736,25.2243393 C264.803736,25.2243393 264.657705,23.8045482 264.657705,22.9748002 L264.657705,16.8162262 L267.85213,16.8162262 L267.85213,30 L264.639451,30 L261.006934,23.8598648 C260.495826,22.9932391 259.911702,21.6103258 259.911702,21.6103258 L259.875195,21.6103258 C259.875195,21.6103258 260.021225,23.0301168 260.021225,23.8598648 L260.021225,30 L256.826801,30 Z" id="NOO-NAN" fill="#FFA4F6"></path>
                </g>
            </g>
        </g>
    </g>
</svg>