<?xml version="1.0" encoding="UTF-8"?>
<svg width="1440px" height="835px" viewBox="0 0 1440 835" version="1.1" xmlns="http://www.w3.org/2000/svg" xmlns:xlink="http://www.w3.org/1999/xlink">
    <!-- Generator: Sketch 49.1 (51147) - http://www.bohemiancoding.com/sketch -->
    <title>Carrie-Banner</title>
    <desc>Created with Sketch.</desc>
    <defs></defs>
    <g id="Home" stroke="none" stroke-width="1" fill="none" fill-rule="evenodd">
        <g id="Home---Desktop">
            <g id="Carrie-Banner" transform="translate(-10.000000, 0.000000)">
                <g id="carrie-icons">
                    <rect id="Rectangle-path" fill="#1B1723" fill-rule="nonzero" x="0" y="0" width="1450" height="835"></rect>
                    <g id="doughnut" transform="translate(199.000000, 380.000000)">
                        <path d="M48.420001,9.56792254 C47.7070561,8.71802084 46.9351469,7.91937891 46.110001,7.17792254 C38.0391954,-0.167231115 26.3945377,-2.05844931 16.4140123,2.3549732 C6.43348697,6.76839572 -0.0029225361,16.6551238 9.95521731e-07,27.5679225 C9.95521731e-07,28.0679225 9.95521731e-07,28.5679225 9.95521731e-07,29.0579225 C0.0777096467,30.4427349 0.258206532,31.8198593 0.540000996,33.1779225 C2.86882155,44.4842292 11.9971398,53.1412044 23.4109251,54.8679007 C34.8247104,56.594597 46.1052321,51.0251047 51.6741768,40.9135851 C57.2431215,30.8020654 55.9203567,18.2912818 48.360001,9.56792254 L48.420001,9.56792254 Z M27.580001,35.3079225 C24.1012631,35.304172 21.0547454,32.9742411 20.140001,29.6179225 C19.9659354,28.9653264 19.8752137,28.2933138 19.870001,27.6179225 C19.8608446,27.0948766 19.9043978,26.5722385 20.000001,26.0579225 C20.8155471,22.0840627 24.5709724,19.4219145 28.5907141,19.9681325 C32.6104557,20.5143505 35.5193424,24.0820711 35.24493,28.1294623 C34.9705176,32.1768534 31.6066838,35.3192847 27.550001,35.3179225 L27.580001,35.3079225 Z" id="Shape" fill="#FFA4F6" fill-rule="nonzero"></path>
                        <path d="M46.9200837,11.6749519 C46.2692676,10.9055891 45.5677006,10.1806365 44.8200837,9.50495195 C37.489986,2.8388645 26.9148294,1.13062515 17.8587077,5.14979345 C8.80258605,9.16896175 2.97453496,18.1570561 3.00008366,28.0649519 C3.00008366,28.5116186 3.00008366,28.9616186 3.00008366,29.4149519 C3.07147914,30.6719481 3.2352545,31.9219886 3.49008366,33.1549519 C5.61492635,43.4048249 13.9005346,51.245644 24.2519476,52.8022747 C34.6033607,54.3589055 44.8285534,49.3017143 49.8739724,40.1300951 C54.9193914,30.9584759 53.716614,19.6146197 46.8600837,11.7049519 L46.9200837,11.6749519 Z M28.0000837,35.0649519 C24.8469879,35.0644515 22.0834018,32.9559376 21.2500837,29.9149519 C20.4565396,27.0191117 21.5982166,23.9397279 24.0877447,22.2610819 C26.5772728,20.5824358 29.8600779,20.6784673 32.2472224,22.4997702 C34.6343668,24.321073 35.5940839,27.4619287 34.6326182,30.3064298 C33.6711525,33.1509309 31.002683,35.0654285 28.0000837,35.0649519 Z" id="Shape" stroke="#1B1723" stroke-width="1.5"></path>
                        <rect id="Rectangle-path" stroke="#1B1723" stroke-width="1.5" fill="#86EDDF" fill-rule="nonzero" transform="translate(30.196794, 10.204933) rotate(10.390000) translate(-30.196794, -10.204933) " x="28.6967944" y="6.20493306" width="3" height="8" rx="1.5"></rect>
                        <rect id="Rectangle-path" stroke="#1B1723" stroke-width="1.5" fill="#86EDDF" fill-rule="nonzero" transform="translate(16.078652, 15.639206) rotate(-52.140000) translate(-16.078652, -15.639206) " x="14.5786522" y="11.6392058" width="3" height="8" rx="1.5"></rect>
                        <path d="M20.8693245,29.9502895 L18.0093245,28.9002895 C17.3142381,28.6633047 16.8954745,27.9552056 17.0226713,27.2319298 C17.1498681,26.508654 17.7850901,25.9859109 18.5193245,26.0002895 C18.6964776,26.0009254 18.8722624,26.0313497 19.0393245,26.0902895 L20.7593245,26.7202895 C20.540913,27.7905783 20.5786046,28.8973395 20.8693245,29.9502895 Z" id="Shape" stroke="#1B1723" stroke-width="1.5" fill="#FFA4F6" fill-rule="nonzero"></path>
                        <rect id="Rectangle-path" stroke="#1B1723" stroke-width="1.5" fill="#5D76DD" fill-rule="nonzero" transform="translate(13.639206, 37.078652) rotate(37.860000) translate(-13.639206, -37.078652) " x="12.1392058" y="33.0786522" width="3" height="8" rx="1.5"></rect>
                        <path d="M7.46,28.5045931 C7.46452427,28.9012765 7.30960528,29.2831698 7.03,29.5645931 L3.49,33.1045931 C3.23517084,31.8716297 3.07139548,30.6215893 3,29.3645931 L4.93,27.4345931 C5.51787977,26.8551356 6.46212023,26.8551356 7.05,27.4345931 C7.32479487,27.7217393 7.47254953,28.107343 7.46,28.5045931 Z" id="Shape" stroke="#1B1723" stroke-width="1.5" fill="#FFA4F6" fill-rule="nonzero"></path>
                        <rect id="Rectangle-path" stroke="#1B1723" stroke-width="1.5" fill="#5D76DD" fill-rule="nonzero" transform="translate(43.462075, 26.162109) rotate(-33.580000) translate(-43.462075, -26.162109) " x="41.9620746" y="22.1621086" width="3" height="8" rx="1.5"></rect>
                        <path d="M46.776469,11.22 L44.656469,13.71 C44.2992034,14.1172828 43.7517936,14.3030287 43.2204436,14.1972691 C42.6890935,14.0915094 42.2545279,13.7103115 42.0804435,13.197269 C41.9063591,12.6842265 42.0192034,12.1172828 42.376469,11.71 L44.676469,9 C45.425776,9.69175091 46.1273809,10.4334475 46.776469,11.22 Z" id="Shape" stroke="#1B1723" stroke-width="1.5" fill="#FFA4F6" fill-rule="nonzero"></path>
                        <rect id="Rectangle-path" stroke="#1B1723" stroke-width="1.5" fill="#5D76DD" fill-rule="nonzero" transform="translate(38.889087, 39.889087) rotate(45.000000) translate(-38.889087, -39.889087) " x="37.3890873" y="35.8890873" width="3" height="8" rx="1.5"></rect>
                        <rect id="Rectangle-path" stroke="#1B1723" stroke-width="1.5" fill="#86EDDF" fill-rule="nonzero" transform="translate(24.889087, 45.889087) rotate(135.000000) translate(-24.889087, -45.889087) " x="23.3890873" y="41.8890873" width="3" height="8" rx="1.5"></rect>
                    </g>
                    <g id="popsicle" transform="translate(585.000000, 218.000000)">
                        <path d="M10.7359367,37 L7.0759367,50.23 C6.76810362,51.3558091 7.4236168,52.5196794 8.5459367,52.84 C9.08831684,52.9902957 9.66820076,52.9187501 10.1577851,52.6411313 C10.6473695,52.3635126 11.0064678,51.9026086 11.1559367,51.36 L14.8159367,38.17 L10.7359367,37 Z" id="Shape" fill="#86EDDF" fill-rule="nonzero"></path>
                        <path d="M27.8503917,40.1693728 C27.2574184,42.313031 25.8365767,44.1330253 23.9008649,45.2284281 C21.965153,46.3238309 19.6733764,46.6047757 17.5303917,46.0093728 L6.12039174,42.8493728 C1.66696168,41.5967453 -0.932135256,36.9756315 0.310391739,32.5193728 L6.14039174,11.5193728 C7.14489859,7.85511006 9.56635044,4.74124204 12.870269,2.86508161 C16.1741875,0.988921175 20.0889236,0.504726749 23.7503917,1.51937282 C27.4146545,2.52387967 30.5285225,4.94533152 32.404683,8.24925004 C34.2808434,11.5531686 34.7650378,15.4679047 33.7503917,19.1293728 L27.8503917,40.1693728 Z" id="Shape" fill="#5D76DD" fill-rule="nonzero"></path>
                        <path d="M33.8817232,14.1776666 C34.0897128,11.7631807 33.6186562,9.33862469 32.5217232,7.1776666 C30.6691393,3.8529361 27.5299975,1.43709883 23.8417232,0.497666595 C20.1723571,-0.495775651 16.2585575,0.0105622741 12.9628162,1.90509769 C9.66707489,3.79963311 7.25988483,6.92687488 6.2717232,10.5976666 L4.1117232,18.5976666 C3.65373205,21.18728 4.62401198,23.8230798 6.6517232,25.4976666 C8.74876702,27.2117478 11.6464509,27.5622741 14.0917232,26.3976666 C16.9417232,24.8376666 16.8917232,21.1876666 18.8117232,21.0876666 C20.3217232,21.0076666 20.8117232,23.2376666 22.6317232,23.2176666 C24.2217232,23.2176666 24.3817232,21.5176666 26.5317232,20.9676666 C28.6817232,20.4176666 29.4017232,21.6476666 30.9017232,21.0476666 C33.4717232,20.0576666 33.8017232,15.3876666 33.8817232,14.1776666 Z" id="Shape" fill="#5D76DD" fill-rule="nonzero" style="mix-blend-mode: multiply;"></path>
                        <g id="Group" transform="translate(1.000000, 3.000000)" stroke="#1B1723" stroke-width="1.5">
                            <path d="M11.522994,34 L8.072994,46.45 C7.77872901,47.5130003 8.40059551,48.6135698 9.462994,48.91 C10.5259943,49.204265 11.6265638,48.5823985 11.922994,47.52 L15.382994,35.07 L11.522994,34 Z" id="Shape"></path>
                            <path d="M26.3075366,36.9627588 C25.1361119,41.1713172 20.7781901,43.6366302 16.5675366,42.4727588 L5.80753661,39.4727588 C1.59493578,38.3057312 -0.875635642,33.9464258 0.28753661,29.7327588 L5.79753661,9.89275883 C7.79068475,2.71198439 15.2254083,-1.49550514 22.4075366,0.492758827 C25.8597308,1.44748228 28.7905206,3.7359192 30.5538263,6.85359377 C32.317132,9.97126833 32.7681793,13.6622071 31.8075366,17.1127588 L26.3075366,36.9627588 Z" id="Shape"></path>
                            <path d="M32.2075381,13.4727588 C32.4171096,11.1937517 31.9877298,8.90141754 30.9675381,6.85275883 C29.2426427,3.70495316 26.2990839,1.40507184 22.8275381,0.492758827 C15.6454098,-1.49550514 8.21068628,2.71198439 6.21753814,9.89275883 L4.11753814,17.4427588 C3.66071081,19.8823122 4.5552416,22.3785883 6.45753814,23.9727588 C8.42203874,25.5962601 11.1432389,25.9500161 13.4575381,24.8827588 C16.1575381,23.4227588 16.1375381,19.9827588 17.9475381,19.8827588 C19.3675381,19.8227588 19.8075381,21.8827588 21.5375381,21.8827588 C23.0375381,21.8827588 23.1975381,20.3027588 25.2275381,19.7927588 C27.2575381,19.2827588 27.9275381,20.4527588 29.3475381,19.9027588 C31.8075381,19.0127588 32.1175381,14.6327588 32.2075381,13.4727588 Z" id="Shape"></path>
                        </g>
                    </g>
                    <g id="mail" transform="translate(316.000000, 695.000000)">
                        <rect id="Rectangle-path" fill="#86EDDF" fill-rule="nonzero" transform="translate(28.939614, 24.175452) rotate(-9.350000) translate(-28.939614, -24.175452) " x="2.93961354" y="3.95545224" width="52" height="40.44" rx="3"></rect>
                        <rect id="Rectangle-path" stroke="#1B1723" stroke-width="1.5" stroke-linecap="round" stroke-linejoin="round" transform="translate(29.826989, 25.248284) rotate(-9.350000) translate(-29.826989, -25.248284) " x="4.82698889" y="5.80328369" width="50" height="38.89" rx="3"></rect>
                        <polygon id="Shape" stroke="#1B1723" stroke-width="1.5" fill="#5D76DD" fill-rule="nonzero" stroke-linecap="round" stroke-linejoin="round" points="43.86 12.97 45 13.84 45.71 12.66 46.76 13.55 47.51 12.36 48.55 13.26 49.33 12.07 48.64 7.88 48.47 6.88 47.36 6 46.65 7.18 45.57 6.29 44.85 7.48 43.81 6.58 43 7.78"></polygon>
                        <path d="M22,24.46 L36.9,22" id="Shape" stroke="#1B1723" stroke-width="1.5" stroke-linecap="round" stroke-linejoin="round"></path>
                        <path d="M21,28.06 L39.62,25" id="Shape" stroke="#1B1723" stroke-width="1.5" stroke-linecap="round" stroke-linejoin="round"></path>
                        <path d="M23,31.45 L37.89,29" id="Shape" stroke="#1B1723" stroke-width="1.5" stroke-linecap="round" stroke-linejoin="round"></path>
                        <path d="M11.3806548,18.97 L12.3806548,13.75 C12.4060571,12.8529378 11.7336667,12.0888578 10.8406548,12 C10.416973,12.0047508 10.0137052,12.1827384 9.72466857,12.4925555 C9.4356319,12.8023726 9.28602574,13.217008 9.3106548,13.64 L9.2406548,14.8 L8.2906548,14.26 C7.94823459,14.0260788 7.5211315,13.9523244 7.12009194,14.0578611 C6.71905238,14.1633979 6.38357749,14.4378307 6.2006548,14.81 C5.78740269,15.6238132 6.02943149,16.6174051 6.7706548,17.15 L11.3806548,18.97 Z" id="Shape" stroke="#1B1723" stroke-width="1.5" fill="#FFA4F6" fill-rule="nonzero" stroke-linecap="round" stroke-linejoin="round"></path>
                    </g>
                    <g id="wand" transform="translate(975.000000, 578.000000)">
                        <path d="M26.91,17 L0,43.91" id="Shape" stroke="#FFA4F6" stroke-width="1.5" stroke-linecap="round" stroke-linejoin="round"></path>
                        <polygon id="Shape" fill="#FFA4F6" fill-rule="nonzero" points="33.47 18.46 30.34 25.7 26.72 19.01 19 18.52 24.66 13.44 21.76 7.73 29.18 9.9 35.86 5 34.36 12.54 41 16.74"></polygon>
                        <polygon id="Shape" stroke="#1B1723" stroke-width="1.5" stroke-linecap="round" stroke-linejoin="round" points="33.23 17.31 30.37 23.93 27.06 17.81 20 17.37 25.18 12.73 22.53 7.5 29.31 9.49 35.41 5 34.04 11.9 40.11 15.74"></polygon>
                        <path d="M27.91,18 L1,44.91" id="Shape" stroke="#1B1723" stroke-width="1.5" stroke-linecap="round" stroke-linejoin="round"></path>
                        <polygon id="Shape" stroke="#86EDDF" stroke-width="0.63" fill="#86EDDF" fill-rule="nonzero" stroke-linecap="round" stroke-linejoin="round" points="41.07 7.62 41.1 6 41.93 7.07 43.35 7.38 42.12 8.19 41.98 9.7 41.28 8.59 40 8.46"></polygon>
                        <polygon id="Shape" stroke="#86EDDF" stroke-width="0.63" fill="#86EDDF" fill-rule="nonzero" stroke-linecap="round" stroke-linejoin="round" points="45.07 1.62 45.1 0 45.93 1.07 47.35 1.38 46.12 2.19 45.98 3.7 45.29 2.59 44 2.46"></polygon>
                        <polygon id="Shape" stroke="#FFA4F6" stroke-width="0.63" fill="#FFA4F6" fill-rule="nonzero" stroke-linecap="round" stroke-linejoin="round" points="47.07 13.62 47.1 12 47.93 13.07 49.35 13.38 48.12 14.19 47.98 15.7 47.29 14.59 46 14.46"></polygon>
                    </g>
                    <g id="unicorn" transform="translate(1150.000000, 303.000000)">
                        <path d="M17.9121189,64.3061649 C14.6321189,66.5761649 -0.48788113,63.6061649 0.0121188704,56.6261649 C0.51211887,49.6461649 10.7421189,51.7061649 12.1921189,46.1461649 C13.6421189,40.5861649 8.19211887,38.9161649 8.86211887,34.6761649 C9.60211887,30.0161649 15.5821189,30.9961649 20.2221189,25.7461649 C25.3821189,19.9061649 17.9521189,14.5961649 25.8521189,10.2161649 C33.7521189,5.83616491 37.1021189,14.5861649 39.3521189,16.0261649" id="Shape" fill="#5D76DD" fill-rule="nonzero"></path>
                        <path d="M17.6263654,65.34 C17.6263654,65.34 11.3463654,29.9 38.5563654,16.97 C39.8263654,16.37 42.1663654,10.91 43.3663654,10.08 L44.9663654,15.59 L60.3363654,0 L53.4563654,19.09 L70.2563654,28.78 L64.8963654,34.78 L52.3463654,35.78 C52.3463654,35.78 46.8463654,37.38 43.4663654,30.89 C43.4663654,30.89 40.3563654,40.75 44.1863654,59.05 L17.6263654,65.34 Z" id="Shape" stroke="#86EDDF" fill="#86EDDF" fill-rule="nonzero" stroke-linecap="round" stroke-linejoin="round"></path>
                        <circle id="Oval" fill="#5D76DD" fill-rule="nonzero" cx="50.43" cy="24.43" r="1.43"></circle>
                        <path d="M18.5797604,62.5 C18.5797604,62.5 12.7797604,29.83 37.8697604,17.92 C39.0297604,17.37 41.1897604,12.33 42.2997604,11.57 L43.7797604,16.64 L59.1897604,0 L51.5997604,19.87 L68.8497604,28.29 L63.9097604,33.85 L50.5797604,35.31 C50.5797604,35.31 45.4997604,36.78 42.3897604,30.81 C42.3897604,30.81 39.5297604,39.89 43.0497604,56.76 L18.5797604,62.5 Z" id="Shape" stroke="#1B1723" stroke-width="1.74" stroke-linecap="round" stroke-linejoin="round"></path>
                        <path d="M18.5130648,61.9746356 C15.5130648,64.0646356 1.51306479,61.3346356 2.01306479,54.9046356 C2.51306479,48.4746356 11.9030648,50.3646356 13.2430648,45.2346356 C14.5830648,40.1046356 9.55306479,38.5846356 10.1730648,34.6746356 C10.8530648,30.3746356 16.3630648,31.2746356 20.6430648,26.4346356 C25.4030648,21.0546356 18.5430648,16.1646356 25.8330648,12.1246356 C33.1230648,8.08463556 36.2030648,16.1246356 38.2730648,17.4846356" id="Shape" stroke="#1B1723" stroke-width="1.74" stroke-linecap="round" stroke-linejoin="round"></path>
                        <path d="M53,8 L54.81,11.1" id="Shape" stroke="#1B1723" stroke-width="1.74" stroke-linecap="round" stroke-linejoin="round"></path>
                        <path d="M49,12 L52.63,18.21" id="Shape" stroke="#1B1723" stroke-width="1.74" stroke-linecap="round" stroke-linejoin="round"></path>
                    </g>
                    <g id="boston" transform="translate(533.000000, 644.000000)">
                        <polygon id="Shape" stroke="#5D76DD" fill="#5D76DD" fill-rule="nonzero" stroke-linecap="round" stroke-linejoin="round" points="50.84 53 36 53 36 3.18 50.84 0"></polygon>
                        <polygon id="Shape" stroke="#1B1723" stroke-width="1.5" stroke-linecap="round" stroke-linejoin="round" points="49 52 35 52 35 5 49 2"></polygon>
                        <rect id="Rectangle-path" stroke="#1B1723" stroke-width="1.5" stroke-linecap="round" stroke-linejoin="round" x="43" y="6" width="2" height="46"></rect>
                        <rect id="Rectangle-path" stroke="#FFA4F6" fill="#FFA4F6" fill-rule="nonzero" stroke-linecap="round" stroke-linejoin="round" x="22" y="17" width="15.9" height="36.04"></rect>
                        <rect id="Rectangle-path" stroke="#FFA4F6" fill="#FFA4F6" fill-rule="nonzero" stroke-linecap="round" stroke-linejoin="round" x="22" y="10" width="15.9" height="4.24"></rect>
                        <rect id="Rectangle-path" stroke="#FFA4F6" fill="#FFA4F6" fill-rule="nonzero" stroke-linecap="round" stroke-linejoin="round" x="24" y="14" width="11.66" height="3.18"></rect>
                        <path d="M30,9.36 L30,3" id="Shape" stroke="#FFA4F6" stroke-width="1.59" stroke-linecap="round" stroke-linejoin="round"></path>
                        <rect id="Rectangle-path" stroke="#1B1723" stroke-width="1.5" stroke-linecap="round" stroke-linejoin="round" x="22" y="18" width="15" height="34"></rect>
                        <rect id="Rectangle-path" stroke="#1B1723" stroke-width="1.5" stroke-linecap="round" stroke-linejoin="round" x="22" y="11" width="15" height="4"></rect>
                        <rect id="Rectangle-path" stroke="#1B1723" stroke-width="1.5" stroke-linecap="round" stroke-linejoin="round" x="24" y="15" width="11" height="3"></rect>
                        <rect id="Rectangle-path" stroke="#86EDDF" fill="#86EDDF" fill-rule="nonzero" stroke-linecap="round" stroke-linejoin="round" x="0" y="30" width="27.03" height="23.32"></rect>
                        <path d="M9,29.83 C9,26.6101799 11.6101799,24 14.83,24 C18.0498201,24 20.66,26.6101799 20.66,29.83" id="Shape" fill="#86EDDF" fill-rule="nonzero"></path>
                        <path d="M14,23.36 L14,17" id="Shape" stroke="#86EDDF" stroke-width="1.59" stroke-linecap="round" stroke-linejoin="round"></path>
                        <rect id="Rectangle-path" stroke="#1B1723" stroke-width="1.5" stroke-linecap="round" stroke-linejoin="round" x="1" y="30" width="25.5" height="22"></rect>
                        <path d="M8,29.5 C8,26.4624339 10.4624339,24 13.5,24 C16.5375661,24 19,26.4624339 19,29.5" id="Shape" stroke="#1B1723" stroke-width="1.5" stroke-linecap="round" stroke-linejoin="round"></path>
                    </g>
                    <g id="toast" transform="translate(1080.000000, 707.000000)">
                        <path d="M46.6235962,4.68393912 C38.4735962,-4.96606088 19.7535962,3.17393912 18.2135962,3.86393912 C16.9735962,4.41393912 -1.46640376,12.9639391 0.0935962426,25.6339391 C0.933596243,32.5439391 7.25359624,36.8139391 9.27359624,38.0639391 C9.27359624,38.0639391 13.5435962,56.7439391 16.8035962,58.1739391 C20.0635962,59.6039391 55.5335962,45.4339391 56.5435962,43.2939391 C57.5535962,41.1539391 49.0135962,23.1839391 49.0135962,23.1839391 C49.0135962,23.1839391 52.3635962,11.5039391 46.6235962,4.68393912 Z" id="Shape" fill="#5D76DD" fill-rule="nonzero"></path>
                        <path d="M38.2292437,42.0105029 C38.2292437,42.0105029 23.8192437,41.5605029 20.6892437,38.4705029 C18.307761,36.0784857 17.4219137,32.5772798 18.3792437,29.3405029 C19.2720012,27.2986167 20.4176299,25.376917 21.7892437,23.6205029 C24.1592437,20.6205029 26.5492437,17.4405029 30.4392437,17.0605029 C33.2708979,16.7367968 36.0953902,17.7237119 38.1092437,19.7405029 C40.1092437,21.9205029 42.2492437,25.5805029 43.3892437,27.0005029 C44.1248233,27.9176952 44.456809,29.0940794 44.3092437,30.2605029 L43.3092437,38.0805029 C42.9522967,40.5457945 40.7051569,42.2842313 38.2292437,42.0105029 Z" id="Shape" fill="#FFA4F6" fill-rule="nonzero"></path>
                        <path d="M32.1321856,40.3914731 L24.2021856,39.5514731 C23.2435626,39.45957 22.3637543,38.9810837 21.7656194,38.2263393 C21.1674845,37.471595 20.9026524,36.5057401 21.0321856,35.5514731 L21.8521856,29.2114731 C22.1369618,27.2176261 23.9495166,25.80737 25.9521856,26.0214731 L33.8821856,26.8714731 C34.8408087,26.9633762 35.720617,27.4418625 36.3187519,28.1966069 C36.9168868,28.9513512 37.1817189,29.9172061 37.0521856,30.8714731 L36.2321856,37.2114731 C35.9474295,39.2041086 34.1330157,40.6113857 32.1321856,40.3914731 Z" id="Shape" style="mix-blend-mode: multiply;"></path>
                        <g id="Group" transform="translate(1.000000, 3.000000)" stroke="#1B1723" stroke-width="1.5">
                            <path d="M44.8288359,4.51134046 C37.0088359,-4.77865954 18.9988359,3.05134046 17.5288359,3.71134046 C16.3288359,4.25134046 -1.40116411,12.4713405 0.088835886,24.6513405 C0.908835886,31.2913405 6.97883589,35.3913405 8.92883589,36.6013405 C8.92883589,36.6013405 13.0388359,54.6013405 16.1588359,55.9313405 C19.2788359,57.2613405 53.3988359,43.6913405 54.3688359,41.6313405 C55.3388359,39.5713405 47.1388359,22.3013405 47.1388359,22.3013405 C47.1388359,22.3013405 50.3588359,11.0613405 44.8288359,4.51134046 Z" id="Shape"></path>
                            <path d="M35.4458223,40.0464293 C35.4458223,40.0464293 21.5858223,39.6164293 18.5858223,36.6564293 C16.29494,34.3564919 15.4434363,30.9888332 16.3658223,27.8764293 C17.2215919,25.9114699 18.3237659,24.0633122 19.6458223,22.3764293 C21.9258223,19.4664293 24.2158223,16.4364293 27.9558223,16.0564293 C30.6770609,15.7504265 33.3895887,16.6999953 35.3258223,18.6364293 C37.2658223,20.7364293 39.3258223,24.2564293 40.4058223,25.6364293 C41.1179876,26.5138961 41.4363924,27.6464043 41.2858223,28.7664293 L40.2858223,36.2864293 C39.9396696,38.6336268 37.8057262,40.291401 35.4458223,40.0464293 Z" id="Shape"></path>
                            <path d="M31.7042601,36.800072 L24.0842601,35.990072 C23.1693202,35.8998132 22.3292522,35.4449805 21.7535437,34.728167 C21.1778353,34.0113536 20.9149771,33.0929351 21.0242601,32.180072 L21.8142601,26.090072 C22.0935027,24.1724148 23.8370127,22.8173323 25.7642601,23.020072 L33.3842601,23.840072 C34.2992,23.9303309 35.139268,24.3851636 35.7149764,25.101977 C36.2906848,25.8187904 36.553543,26.737209 36.4442601,27.650072 L35.6542601,33.740072 C35.3750185,35.6565043 33.6296707,37.0085965 31.7042601,36.800072 Z" id="Shape"></path>
                        </g>
                    </g>
                    <g id="clouds" transform="translate(339.000000, 251.000000)">
                        <circle id="Oval" fill="#FFA4F6" fill-rule="nonzero" cx="35.02" cy="25.02" r="13.02"></circle>
                        <path d="M51,28 L59.22,30.05" id="Shape" stroke="#FFA4F6" stroke-width="1.63" stroke-linecap="round" stroke-linejoin="round"></path>
                        <path d="M50,18.67 L58.04,16" id="Shape" stroke="#FFA4F6" stroke-width="1.63" stroke-linecap="round" stroke-linejoin="round"></path>
                        <path d="M45,11 L49.76,4" id="Shape" stroke="#FFA4F6" stroke-width="1.63" stroke-linecap="round" stroke-linejoin="round"></path>
                        <path d="M36,8.46 L36.44,0" id="Shape" stroke="#FFA4F6" stroke-width="1.63" stroke-linecap="round" stroke-linejoin="round"></path>
                        <path d="M26.8,10.99 L22,4" id="Shape" stroke="#FFA4F6" stroke-width="1.63" stroke-linecap="round" stroke-linejoin="round"></path>
                        <circle id="Oval" stroke="#1B1723" stroke-width="1.5" stroke-linecap="round" stroke-linejoin="round" cx="34" cy="25" r="12"></circle>
                        <path d="M0.580803439,34.3453919 C-0.473060556,32.33958 -0.0650234779,29.8776942 1.57960535,28.3191351 C3.22423418,26.7605759 5.70447966,26.485334 7.65080344,27.6453919 C7.29831162,24.2371852 9.26398123,21.0128308 12.4550196,19.7648736 C15.646058,18.5169163 19.2776303,19.5522908 21.3308034,22.2953919 C24.6208034,18.1053919 30.1408034,16.9353919 33.9408034,18.9853919 C38.6408034,21.5253919 40.4908034,28.8653919 36.4208034,34.3453919 L0.580803439,34.3453919 Z" id="Shape" fill="#5D76DD" fill-rule="nonzero"></path>
                        <path d="M1.53870596,34.0506376 C0.562915597,32.2013232 0.938402511,29.9284518 2.45713895,28.4912426 C3.97587539,27.0540334 6.26598816,26.8043972 8.05870596,27.8806376 C7.68654278,24.7196041 9.49379047,21.7054269 12.4573608,20.5444406 C15.420931,19.3834543 18.7946749,20.3679647 20.668706,22.9406376 C23.668706,19.0906376 28.788706,18.0006376 32.288706,19.9406376 C36.618706,22.2706376 38.288706,29.0406376 34.568706,34.0906376 L1.53870596,34.0506376 Z" id="Shape" stroke="#1B1723" stroke-width="1.5" stroke-linecap="round" stroke-linejoin="round"></path>
                        <path d="M16.2486779,45.3453919 C12.1686779,39.8653919 14.0286779,32.5253919 18.7186779,29.9853919 C22.5286779,27.9353919 28.0386779,29.1053919 31.3386779,33.2953919 C33.3872369,30.545754 37.0216439,29.5056963 40.214679,30.755348 C43.4077141,32.0049996 45.3706863,35.2356921 45.0086779,38.6453919 C46.9553659,37.4762279 49.442533,37.7471177 51.091884,39.3079442 C52.741235,40.8687708 53.1487822,43.3372292 52.0886779,45.3453919 C54.0693301,45.6472649 55.6087489,47.2275171 55.8586779,49.2153919 C55.8749727,50.4509197 55.3913513,51.6406131 54.5176252,52.5143392 C53.6438992,53.3880653 52.4542057,53.8716867 51.2186779,53.8553919 L19.5486779,53.8553919 L16.2486779,45.3453919 Z" id="Shape" fill="#86EDDF" fill-rule="nonzero"></path>
                        <path d="M17.0597527,44.0699295 C13.2997527,39.0199295 15.0597527,32.2499295 19.3397527,29.9099295 C22.8497527,28.0199295 27.9397527,29.0999295 30.9697527,32.9099295 C32.8464437,30.3509004 36.209855,29.3744953 39.1651147,30.5307993 C42.1203745,31.6871033 43.9280566,34.6868014 43.5697527,37.8399295 C45.365148,36.7759487 47.6485486,37.0323713 49.1632334,38.4680696 C50.6779183,39.9037678 51.0561469,42.1701777 50.0897527,44.0199295 C51.9172635,44.2946434 53.3413804,45.7473242 53.5797527,47.5799295 C53.5933002,48.7191552 53.1467246,49.8156791 52.3411134,50.6212903 C51.5355023,51.4269015 50.4389784,51.873477 49.2997527,51.8599295 L20.0797527,51.8599295 L17.0597527,44.0699295 Z" id="Shape" stroke="#1B1723" stroke-width="1.5" stroke-linecap="round" stroke-linejoin="round"></path>
                        <path d="M2.58080344,54.3501649 C1.52693944,52.344353 1.93497652,49.8824672 3.57960535,48.3239081 C5.22423418,46.765349 7.70447966,46.490107 9.65080344,47.6501649 C9.29282206,44.239973 11.2566964,41.010697 14.4493113,39.7597894 C17.6419262,38.5088818 21.2768342,39.5444829 23.3308034,42.2901649 C26.6208034,38.1101649 32.1408034,36.9301649 35.9408034,38.9901649 C40.6408034,41.5201649 42.4908034,48.8701649 38.4208034,54.3501649 L2.58080344,54.3501649 Z" id="Shape" fill="#5D76DD" fill-rule="nonzero"></path>
                        <path d="M3.53870596,55.0506376 C2.5629156,53.2013232 2.93840251,50.9284518 4.45713895,49.4912426 C5.97587539,48.0540334 8.26598816,47.8043972 10.058706,48.8806376 C9.68654278,45.7196041 11.4937905,42.7054269 14.4573608,41.5444406 C17.420931,40.3834543 20.7946749,41.3679647 22.668706,43.9406376 C25.668706,40.0906376 30.788706,39.0006376 34.288706,40.9406376 C38.618706,43.2706376 40.288706,50.0406376 36.568706,55.0906376 L3.53870596,55.0506376 Z" id="Shape" stroke="#1B1723" stroke-width="1.5" stroke-linecap="round" stroke-linejoin="round"></path>
                    </g>
                    <g id="rainbow" transform="translate(979.000000, 151.000000)" stroke-linecap="round" stroke-linejoin="round">
                        <path d="M12,20.1371225 C12,20.1371225 20.1,-1.18287753 39.53,3.73712247 C58.96,8.65712247 54.24,30.8271225 54.24,30.8271225 L49.36,29.5971225 C49.36,29.5971225 52.99,12.5371225 38.05,8.75712247 C23.11,4.97712247 16.87,21.3671225 16.87,21.3671225 L12,20.1371225 Z" id="Shape" stroke="#86EDDF" stroke-width="1.74" fill="#86EDDF" fill-rule="nonzero"></path>
                        <path d="M58.29,34.4524138 C58.29,34.4524138 64.13,7.00241379 40.08,0.912413793 C16.03,-5.17758621 6,21.2124138 6,21.2124138 L9.52,22.1024138 C9.52,22.1024138 18.19,-0.737586207 39.01,4.53241379 C59.83,9.80241379 54.77,33.5324138 54.77,33.5324138 L58.29,34.4524138 Z" id="Shape" stroke="#FFA4F6" stroke-width="1.62" fill="#FFA4F6" fill-rule="nonzero"></path>
                        <path d="M12,24.9050837 C12,24.9050837 19.52,5.11508367 37.56,9.68508367 C55.6,14.2550837 51.22,34.8450837 51.22,34.8450837 L46.7,33.6950837 C46.7,33.6950837 50.07,17.8550837 36.19,14.3450837 C22.31,10.8350837 16.5,26.0550837 16.5,26.0550837 L12,24.9050837 Z" id="Shape" stroke="#5D76DD" stroke-width="1.62" fill="#5D76DD" fill-rule="nonzero"></path>
                        <path d="M8,22.666891 C8,22.666891 17.3,-1.803109 39.59,3.846891 C61.88,9.496891 56.47,34.936891 56.47,34.936891" id="Shape" stroke="#1B1723" stroke-width="1.5"></path>
                        <path d="M11,23.0132261 C11,23.0132261 19,1.84322612 38.33,6.73322612 C57.66,11.6232261 52.94,33.6432261 52.94,33.6432261" id="Shape" stroke="#1B1723" stroke-width="1.5"></path>
                        <path d="M14,23.745942 C14,23.745942 21,5.39594197 37.69,9.63594197 C54.38,13.875942 50.36,32.955942 50.36,32.955942" id="Shape" stroke="#1B1723" stroke-width="1.5"></path>
                        <path d="M18,25.3389172 C18,25.3389172 23.36,11.2289172 36.22,14.4889172 C49.08,17.7489172 45.96,32.4289172 45.96,32.4289172" id="Shape" stroke="#1B1723" stroke-width="1.5"></path>
                        <path d="M18.1856148,23.6119141 C17.9235509,21.7866303 16.5041382,20.3443143 14.6832827,20.0530691 C12.8624273,19.761824 11.063945,20.6894389 10.2456148,22.3419141 C6.80561484,19.5019141 2.40561484,20.1019141 0.795614837,22.3419141 C-0.814385163,24.5819141 0.115614837,29.0619141 2.71561484,30.1319141 C3.83555008,30.501774 5.05569476,30.4192348 6.11561484,29.9019141 C6.26125041,31.7939217 7.64627587,33.3587799 9.50658156,33.7331664 C11.3668872,34.1075529 13.2494266,33.2002922 14.1156148,31.5119141 C15.7074705,33.2725519 18.3323288,33.6391051 20.3456148,32.3819141 C22.5956148,30.7919141 22.4056148,27.3819141 21.0056148,25.4319141 C20.290081,24.5330265 19.2994365,23.8936744 18.1856148,23.6119141 Z" id="Shape" stroke="#86EDDF" stroke-width="1.62" fill="#86EDDF" fill-rule="nonzero"></path>
                        <path d="M55.9000931,43.2917593 C54.8017695,44.7742947 52.8660924,45.3689333 51.1248729,44.7587035 C49.3836533,44.1484737 48.2426578,42.475581 48.3100931,40.6317593 C43.9400931,41.4917593 40.3100931,38.8617593 40.0200931,36.0817593 C39.7300931,33.3017593 42.6300931,29.8517593 45.4300931,30.1517593 C46.591912,30.3565154 47.6264696,31.0102983 48.3100931,31.9717593 C49.3326761,30.3571495 51.3090617,29.6262367 53.136139,30.1869765 C54.9632163,30.7477164 56.1893148,32.4614888 56.1300931,34.3717593 C58.3642798,33.5796691 60.8445485,34.5076608 62.0100931,36.5717593 C63.2400931,39.0417593 61.4300931,41.9817593 59.2900931,43.0017593 C58.2238066,43.4728073 57.0308935,43.5748559 55.9000931,43.2917593 Z" id="Shape" stroke="#86EDDF" stroke-width="1.62" fill="#86EDDF" fill-rule="nonzero"></path>
                        <path d="M18.8681698,24.3406274 C18.619201,22.6497599 17.3008815,21.3165317 15.6129205,21.048565 C13.9249595,20.7805984 12.2585569,21.6399968 11.4981698,23.1706274 C8.31816979,20.5406274 4.23816979,21.1006274 2.73816979,23.1706274 C1.23816979,25.2406274 2.11816979,29.4106274 4.52816979,30.4006274 C5.56525279,30.7450747 6.69598762,30.6696924 7.67816979,30.1906274 C7.8032872,31.9548402 9.09147453,33.4181367 10.8255928,33.7658939 C12.559711,34.1136512 14.3124978,33.2601866 15.1081698,31.6806274 C16.5843711,33.308678 19.0147153,33.6456408 20.8781698,32.4806274 C22.9681698,31.0106274 22.7981698,27.8206274 21.4881698,26.0406274 C20.8241437,25.2028019 19.9038516,24.6056659 18.8681698,24.3406274 Z" id="Shape" stroke="#1B1723" stroke-width="1.5"></path>
                        <path d="M53.7028285,42.3307988 C52.670456,43.6631203 50.900498,44.183935 49.3110561,43.6230891 C47.7216142,43.0622432 46.6704547,41.545977 46.7028285,39.8607988 C42.7028285,40.6607988 39.3228285,38.2207988 39.0228285,35.6507988 C38.7228285,33.0807988 41.4328285,29.8707988 44.0228285,30.1507988 C45.0972187,30.3358422 46.0540711,30.94017 46.6828285,31.8307988 C47.6304417,30.3313698 49.4650052,29.6525504 51.1603874,30.1740266 C52.8557695,30.6955028 53.9917053,32.2880068 53.9328285,34.0607988 C55.9969982,33.3215817 58.2945361,34.1631707 59.3928285,36.0607988 C60.5328285,38.3507988 58.8528285,41.0607988 56.8628285,42.0607988 C55.8697141,42.5031487 54.7565911,42.5982573 53.7028285,42.3307988 Z" id="Shape" stroke="#1B1723" stroke-width="1.5"></path>
                    </g>
                    <g id="mountains" transform="translate(1164.000000, 131.000000)" stroke-linecap="round" stroke-linejoin="round">
                        <polygon id="Shape" stroke="#5D76DD" fill="#5D76DD" fill-rule="nonzero" points="0 44.72 15.42 8 43.2 44.72"></polygon>
                        <polygon id="Shape" stroke="#1B1723" stroke-width="1.5" points="1 43 15.28 9 41 43"></polygon>
                        <polyline id="Shape" stroke="#1B1723" stroke-width="1.5" points="10 22 13.23 24 17.23 21 21 23"></polyline>
                        <polygon id="Shape" stroke="#86EDDF" fill="#86EDDF" fill-rule="nonzero" points="11 45.36 33.14 0 54.2 45.36"></polygon>
                        <polygon id="Shape" stroke="#1B1723" stroke-width="1.5" points="11 43 31.5 1 51 43"></polygon>
                        <polyline id="Shape" stroke="#1B1723" stroke-width="1.5" points="37.23 14 33 17.16 29 14.16 24 17.16"></polyline>
                        <polygon id="Shape" stroke="#FFA4F6" fill="#FFA4F6" fill-rule="nonzero" points="3 44.68 31.62 22 46.2 44.68"></polygon>
                        <polygon id="Shape" stroke="#1B1723" stroke-width="1.5" points="4 43 30.5 22 44 43"></polygon>
                        <polyline id="Shape" stroke="#1B1723" stroke-width="1.5" points="36.67 31.67 32.44 34.83 28.44 31.83 23.44 34.83 20 31"></polyline>
                    </g>
                    <g id="trees" transform="translate(1319.000000, 544.000000)" stroke-linecap="round" stroke-linejoin="round">
                        <polygon id="Shape" stroke="#86EDDF" stroke-width="1.59" fill="#86EDDF" fill-rule="nonzero" points="27.03 25.29 31.89 25.71 25.65 12.35 29.91 12.72 23.97 0 15.92 11.51 20.18 11.88 11.73 23.96 16.6 24.38 11 32.39 20.02 33.17 18.93 45.73 21.04 45.92 22.13 33.36 31.16 34.14"></polygon>
                        <polygon id="Shape" stroke="#1B1723" stroke-width="1.5" points="26.16 24.91 30.76 25.31 24.86 12.68 28.88 13.03 23.26 1 15.66 11.88 19.68 12.23 11.69 23.65 16.29 24.05 11 31.62 19.54 32.37 18.5 44.25 20.5 44.42 21.53 32.54 30.07 33.28"></polygon>
                        <polygon id="Shape" stroke="#FFA4F6" stroke-width="1.59" fill="#FFA4F6" fill-rule="nonzero" points="20.16 37.71 13.92 24.35 18.18 24.72 12.24 12 4.19 23.5 8.45 23.87 0 35.96 9.02 36.74 7.84 50.36 9.95 50.54 11.13 36.92"></polygon>
                        <polygon id="Shape" stroke="#1B1723" stroke-width="1.5" points="20.07 36.32 14.17 23.69 18.19 24.04 12.57 12 4.96 22.89 8.99 23.24 1 34.66 9.54 35.41 8.42 48.28 10.41 48.46 11.53 35.58"></polygon>
                        <polygon id="Shape" stroke="#5D76DD" stroke-width="1.59" fill="#5D76DD" fill-rule="nonzero" points="47.03 32.28 51.9 32.71 45.66 19.35 49.92 19.72 43.98 7 35.93 18.5 40.19 18.87 31.74 30.95 36.6 31.38 31 39.38 40.07 40.17 38.89 53.79 40.99 53.97 42.18 40.35 51.17 41.14"></polygon>
                        <polygon id="Shape" stroke="#1B1723" stroke-width="1.5" points="46.15 30.91 50.76 31.31 44.86 18.68 48.88 19.03 43.26 7 35.65 17.88 39.68 18.23 31.69 29.66 36.29 30.06 31 37.63 39.57 38.37 38.45 51.25 40.44 51.42 41.56 38.54 50.06 39.28"></polygon>
                    </g>
                    <g id="snowboard" transform="translate(878.000000, 709.000000)">
                        <g id="Group" fill="#FFA4F6" fill-rule="nonzero">
                            <path d="M58.8893217,34.2501779 C58.1141144,34.2508364 57.3417287,34.1568068 56.5893217,33.9701779 L7.94932166,21.8001779 C2.65792181,20.3879203 -0.715549159,15.2112385 0.129321658,9.80017785 L0.359321658,8.45017785 C1.03254799,4.14076453 4.75772565,0.972662529 9.11932166,1.00017785 C9.89452893,0.999519301 10.6669146,1.09354886 11.4193217,1.28017785 L60.0593217,13.4601779 C65.3565159,14.8644314 68.7338548,20.0470486 67.8793217,25.4601779 L67.6493217,26.8101779 C66.9716534,31.1156141 63.2476718,34.2784477 58.8893217,34.2501779 Z" id="Shape"></path>
                            <path d="M9.97387334,1.69002806 C10.6784364,1.69271475 11.3801271,1.78000643 12.0638733,1.95002806 L60.7138733,14.1500281 C65.5665547,15.4444917 68.6656247,20.185767 67.9038733,25.1500281 L67.6738733,26.5000281 C67.0572684,30.397989 63.6902776,33.2639648 59.7438733,33.2500281 C59.0393103,33.2473414 58.3376196,33.1600497 57.6538733,32.9900281 L9.00387334,20.8500281 C4.12497137,19.5535225 1.01864856,14.775229 1.81387334,9.79002806 L2.04387334,8.45002806 C2.65604974,4.54809162 6.02422849,1.67685727 9.97387334,1.69002806 Z M9.97387334,2.80563751e-05 C5.20793059,-0.0113589708 1.14129759,3.444643 0.383873342,8.15002806 L0.143873342,9.50002806 C-0.784157789,15.3578755 2.86372241,20.9699989 8.59387334,22.5000281 L57.2438733,34.6800281 C58.0614021,34.885164 58.9010012,34.9892743 59.7438733,34.9900281 C64.5098161,35.0014151 68.5764491,31.5454131 69.3338733,26.8400281 L69.5738733,25.4900281 C70.5019045,19.6321806 66.8540243,14.0200572 61.1238733,12.4900281 L12.4738733,0.310028056 C11.6563446,0.104892071 10.8167455,0.000781776382 9.97387334,2.80563751e-05 Z" id="Shape"></path>
                        </g>
                        <path d="M63.29,28.77 L55,27" id="Shape" stroke="#86EDDF" stroke-width="1.59" stroke-linecap="round" stroke-linejoin="round"></path>
                        <path d="M65.22,26.32 L59,25" id="Shape" stroke="#86EDDF" stroke-width="1.59" stroke-linecap="round" stroke-linejoin="round"></path>
                        <path d="M5,6 L13.29,7.76" id="Shape" stroke="#86EDDF" stroke-width="1.59" stroke-linecap="round" stroke-linejoin="round"></path>
                        <path d="M3,9 L9.22,10.32" id="Shape" stroke="#86EDDF" stroke-width="1.59" stroke-linecap="round" stroke-linejoin="round"></path>
                        <path d="M12.5065947,3.58 C13.1252905,3.58112715 13.7421054,3.64817224 14.3465947,3.78 L59.0765947,13.27 C63.8919032,14.2993968 66.9652255,19.0324026 65.9465947,23.85 L65.9465947,23.94 C65.0451164,28.0464449 61.4207295,30.9816585 57.2165947,31.01 C56.5978988,31.0088728 55.981084,30.9418278 55.3765947,30.81 L10.6465947,21.32 C5.83465594,20.2857095 2.76380526,15.55651 3.77659468,10.74 L3.77659468,10.65 C4.67807298,6.54355514 8.3024599,3.60834146 12.5065947,3.58 Z M12.5065947,2 C7.54985531,2.01107907 3.27060401,5.47444199 2.22659468,10.32 L2.22659468,10.41 C1.03552405,16.0828317 4.65771277,21.6502699 10.3265947,22.86 L55.0565947,32.36 C55.7702432,32.5101419 56.4973286,32.5872062 57.2265947,32.59 C62.183334,32.5789209 66.4625853,29.115558 67.5065947,24.27 L67.5065947,24.18 C68.692352,18.5114322 65.0780524,12.9492529 59.4165947,11.73 L14.6865947,2.23 C13.9729461,2.0798581 13.2458608,2.00279376 12.5165947,2 L12.5065947,2 Z" id="Shape" fill="#1B1723" fill-rule="nonzero"></path>
                        <g id="Group" transform="translate(40.000000, 13.000000)" fill-rule="nonzero">
                            <path d="M5.34570556,12.3205433 C4.63044757,12.3095045 3.93449403,12.0867994 3.34570556,11.6805433 L2.67570556,11.2205433 C1.04042667,10.1720087 0.51666545,8.02414753 1.48570556,6.34054331 L3.96570556,2.43054331 C4.54642102,1.52194386 5.5575695,0.980392427 6.63570556,1.00054331 C7.35271974,1.01024296 8.04998768,1.23685504 8.63570556,1.65054331 L9.30570556,2.10054331 C10.9423343,3.15281708 11.4658111,5.3039109 10.4957056,6.99054331 L8.01570556,10.9005433 C7.42857935,11.8009451 6.42049252,12.3370811 5.34570556,12.3205433 Z" id="Shape" fill="#86EDDF"></path>
                            <path d="M6.50278565,1.71019724 C7.06150521,1.71451591 7.60565449,1.88892273 8.06278565,2.21019724 L8.72278565,2.66019724 C9.97880843,3.4470264 10.4149973,5.06964913 9.72278565,6.38019724 L7.18278565,10.2901972 C6.75457417,10.9388333 6.01953287,11.3177205 5.24278565,11.2901972 C4.68580473,11.2845149 4.14298116,11.1140127 3.68278565,10.8001972 L3.02278565,10.3401972 C1.75963996,9.56343205 1.32112959,7.93655858 2.02278565,6.63019724 L4.49278565,2.72019724 C4.93765938,2.05885879 5.69679065,1.67929315 6.49278565,1.72019724 L6.50278565,1.71019724 Z M6.49278565,0.000197237279 C5.1205754,-0.0134054278 3.83717886,0.677363881 3.09278565,1.83019724 L0.612785648,5.73019724 C-0.594298549,7.80959968 0.0334357336,10.4697883 2.04278565,11.7901972 L2.71278565,12.2501972 C3.45598597,12.7662257 4.33801695,13.0451288 5.24278565,13.0501972 C6.6149959,13.0637999 7.89839243,12.3730306 8.64278565,11.2201972 L11.1227856,7.31019724 C12.3279618,5.22827254 11.6956826,2.56743129 9.68278565,1.25019724 L9.02278565,0.790197237 C8.27680416,0.281075127 7.39592452,0.00601784887 6.49278565,0.000197237279 Z" id="Shape" fill="#1B1723"></path>
                        </g>
                        <g id="Group" transform="translate(18.000000, 9.000000)" fill-rule="nonzero">
                            <path d="M5.45184476,12.2809389 C3.70613287,12.3243358 2.17691175,11.1186038 1.81184476,9.41093888 L1.04184476,4.85093888 C0.903996443,4.02581604 1.10997199,3.18023222 1.61184476,2.51093888 C2.1938525,1.7387527 3.06275099,1.23399839 4.02184476,1.11093888 L4.83184476,1.00093888 L5.34184476,1.00093888 C7.08621989,0.961549218 8.61319293,2.16550873 8.98184476,3.87093888 L9.75184476,8.44093888 C9.88615187,9.26592801 9.68051154,10.1101357 9.18184476,10.7809389 C8.59573598,11.5467964 7.72826061,12.0471245 6.77184476,12.1709389 L5.97184476,12.2809389 L5.45184476,12.2809389 Z" id="Shape" fill="#86EDDF"></path>
                            <path d="M5.1905733,1.68094105 C6.51946806,1.63486522 7.69230808,2.5428704 7.9805733,3.84094105 L8.7505733,8.40094105 C8.84777253,8.99338454 8.69975942,9.59987731 8.3405733,10.080941 C7.8954206,10.6681062 7.23182261,11.0503964 6.5005733,11.140941 L5.7005733,11.240941 C5.56742474,11.250868 5.43372187,11.250868 5.3005733,11.240941 C3.97298145,11.2829886 2.80241198,10.3767413 2.5105733,9.08094105 L1.7405733,4.52094105 C1.64138095,3.9269219 1.79351222,3.31839684 2.1605733,2.84094105 C2.61054875,2.2742137 3.27058218,1.91353969 3.9905733,1.84094105 L4.7905733,1.73094105 C4.92372187,1.72101405 5.05742474,1.72101405 5.1905733,1.73094105 L5.1905733,1.68094105 Z M5.1905733,0.010941047 C4.98082665,-0.00364701566 4.77031996,-0.00364701566 4.5605733,0.010941047 L3.7605733,0.120941047 C2.63028898,0.232460891 1.59439617,0.800193861 0.892274688,1.69294509 C0.19015321,2.58569633 -0.117440753,3.72621402 0.0405733048,4.85094105 L0.810573305,9.41094105 C1.24457886,11.5344672 3.13359444,13.0448383 5.3005733,13.000941 C5.51030839,13.0158585 5.72083822,13.0158585 5.9305733,13.000941 L6.7305733,12.890941 C7.86085763,12.7794212 8.89675044,12.2116882 9.59887192,11.318937 C10.3009934,10.4261858 10.6085874,9.28566808 10.4505733,8.16094105 L9.6805733,3.60094105 C9.24656775,1.47741485 7.35755217,-0.0329561877 5.1905733,0.010941047 Z" id="Shape" fill="#1B1723"></path>
                        </g>
                        <g id="Group" transform="translate(42.000000, 15.000000)" fill-rule="nonzero">
                            <rect id="Rectangle-path" fill="#FFFFFF" transform="translate(3.974355, 3.261624) rotate(-56.630000) translate(-3.974355, -3.261624) " x="3.33435484" y="0.121623741" width="1.28" height="6.28"></rect>
                            <polygon id="Shape" fill="#1B1723" points="1.65 0 0 2.51 6.68 6.91 8.33 4.4 1.65 0"></polygon>
                        </g>
                        <g id="Group" transform="translate(19.000000, 12.000000)" fill-rule="nonzero">
                            <rect id="Rectangle-path" fill="#FFFFFF" transform="translate(4.200340, 2.101295) rotate(-8.580000) translate(-4.200340, -2.101295) " x="1.06034047" y="1.46129466" width="6.28" height="1.28"></rect>
                            <polygon id="Shape" fill="#1B1723" points="7.91 0 0 1.19 0.45 4.16 8.36 2.96 7.91 0"></polygon>
                        </g>
                    </g>
                    <g id="turntable" transform="translate(130.000000, 204.000000)" stroke-linecap="round" stroke-linejoin="round">
                        <g id="Group" stroke-width="1.59">
                            <rect id="Rectangle-path" stroke="#86EDDF" fill="#86EDDF" fill-rule="nonzero" transform="translate(30.062919, 24.160052) rotate(13.330000) translate(-30.062919, -24.160052) " x="3.56291886" y="5.61005161" width="53" height="37.1" rx="3"></rect>
                            <circle id="Oval" stroke="#FFA4F6" fill="#FFA4F6" fill-rule="nonzero" cx="22.25" cy="23.25" r="13.25"></circle>
                            <circle id="Oval" stroke="#FFA4F6" fill="#86EDDF" fill-rule="nonzero" cx="22.71" cy="23.71" r="3.71"></circle>
                            <circle id="Oval" stroke="#5D76DD" fill="#5D76DD" fill-rule="nonzero" cx="43.71" cy="17.71" r="3.71"></circle>
                            <polyline id="Shape" stroke="#5D76DD" points="43.03 21 40.1 33.37 35 36.52"></polyline>
                            <circle id="Oval" stroke="#5D76DD" fill="#5D76DD" fill-rule="nonzero" cx="45.59" cy="40.59" r="1.59"></circle>
                            <circle id="Oval" stroke="#5D76DD" fill="#5D76DD" fill-rule="nonzero" cx="47.59" cy="34.59" r="1.59"></circle>
                        </g>
                        <rect id="Rectangle-path" stroke="#1B1723" stroke-width="1.5" transform="translate(30.361244, 23.792502) rotate(13.330000) translate(-30.361244, -23.792502) " x="5.36124421" y="6.29250152" width="50" height="35" rx="3"></rect>
                        <circle id="Oval" stroke="#1B1723" stroke-width="1.5" cx="22.5" cy="23.5" r="12.5"></circle>
                        <circle id="Oval" stroke="#1B1723" stroke-width="1.5" cx="22.5" cy="23.5" r="3.5"></circle>
                        <circle id="Oval" stroke="#1B1723" stroke-width="1.5" cx="42.5" cy="17.5" r="3.5"></circle>
                        <circle id="Oval" stroke="#1B1723" stroke-width="1.5" cx="45.5" cy="39.5" r="1.5"></circle>
                        <circle id="Oval" stroke="#1B1723" stroke-width="1.5" cx="47.5" cy="34.5" r="1.5"></circle>
                    </g>
                    <g id="polaroid" transform="translate(815.000000, 190.000000)">
                        <g id="Group">
                            <rect id="Rectangle-path" stroke="#FFA4F6" stroke-width="1.59" fill="#FFA4F6" fill-rule="nonzero" transform="translate(27.033508, 9.515285) rotate(-7.330000) translate(-27.033508, -9.515285) " x="0.573507571" y="3.32528514" width="52.92" height="12.38" rx="2"></rect>
                            <rect id="Rectangle-path" stroke="#FFA4F6" stroke-width="1.59" fill="#FFA4F6" fill-rule="nonzero" transform="translate(30.349278, 32.970059) rotate(-7.330000) translate(-30.349278, -32.970059) " x="3.88927784" y="24.3050589" width="52.92" height="17.33" rx="2"></rect>
                            <ellipse id="Oval" stroke="#5D76DD" stroke-width="1.45780836" fill="#5D76DD" fill-rule="nonzero" stroke-linecap="round" stroke-linejoin="round" transform="translate(29.110700, 30.102100) rotate(-7.480886) translate(-29.110700, -30.102100) " cx="29.1107" cy="30.1021" rx="6.34046785" ry="6.33048286"></ellipse>
                            <rect id="Rectangle-path" stroke="#FFA4F6" stroke-width="1.59" fill="#FFA4F6" fill-rule="nonzero" transform="translate(32.191074, 48.740192) rotate(-7.330000) translate(-32.191074, -48.740192) " x="5.73107374" y="41.3151924" width="52.92" height="14.85" rx="2"></rect>
                            <rect id="Rectangle-path" fill="#5D76DD" fill-rule="nonzero" transform="translate(32.295247, 49.768382) rotate(-7.330000) translate(-32.295247, -49.768382) " x="10.9602467" y="48.7133818" width="42.67" height="2.11" rx="1"></rect>
                            <rect id="Rectangle-path" stroke="#FFA4F6" stroke-width="1.06" stroke-linecap="round" stroke-linejoin="round" transform="translate(5.064711, 23.258092) rotate(-7.330000) translate(-5.064711, -23.258092) " x="4.53471089" y="19.0330918" width="1.06" height="8.45"></rect>
                            <rect id="Rectangle-path" stroke="#FFA4F6" stroke-width="1.06" stroke-linecap="round" stroke-linejoin="round" transform="translate(52.064711, 16.258092) rotate(-7.330000) translate(-52.064711, -16.258092) " x="51.5347109" y="12.0330918" width="1.06" height="8.45"></rect>
                        </g>
                        <rect id="Rectangle-path" stroke="#1B1723" stroke-width="1.5" transform="translate(27.506071, 10.977407) rotate(-7.330000) translate(-27.506071, -10.977407) " x="2.54107067" y="5.13740742" width="49.93" height="11.68" rx="2"></rect>
                        <rect id="Rectangle-path" stroke="#1B1723" stroke-width="1.5" fill="#5D76DD" fill-rule="nonzero" stroke-linecap="round" stroke-linejoin="round" transform="translate(41.873420, 8.412124) rotate(-7.330000) translate(-41.873420, -8.412124) " x="34.3834201" y="4.92712355" width="14.98" height="6.97"></rect>
                        <rect id="Rectangle-path" stroke="#1B1723" stroke-width="1.49774831" transform="translate(28.778100, 30.338700) rotate(-7.480886) translate(-28.778100, -30.338700) " x="3.85057563" y="22.1759717" width="49.8550487" height="16.3254566" rx="2"></rect>
                        <ellipse id="Oval" stroke="#1B1723" stroke-width="1.38" stroke-linecap="round" stroke-linejoin="round" transform="translate(29.704000, 32.695358) rotate(-7.330000) translate(-29.704000, -32.695358) " cx="29.7040004" cy="32.6953579" rx="5.99" ry="5.98"></ellipse>
                        <rect id="Rectangle-path" stroke="#1B1723" stroke-width="1.38" fill="#5D76DD" fill-rule="nonzero" stroke-linecap="round" stroke-linejoin="round" transform="translate(48.911068, 27.902426) rotate(-7.330000) translate(-48.911068, -27.902426) " x="45.4160681" y="24.4174257" width="6.99" height="6.97"></rect>
                        <rect id="Rectangle-path" stroke="#1B1723" stroke-width="1.5" transform="translate(31.654706, 47.132887) rotate(-7.330000) translate(-31.654706, -47.132887) " x="6.68970596" y="40.1278868" width="49.93" height="14.01" rx="2"></rect>
                    </g>
                    <g id="plant" transform="translate(375.000000, 529.000000)" stroke-linecap="round" stroke-linejoin="round">
                        <polygon id="Shape" stroke="#86EDDF" stroke-width="1.57" fill="#86EDDF" fill-rule="nonzero" points="1 16.74 2.1 2.9 7.65 17.69 9.65 9.57 13.47 18.51 21.18 0 20.96 19.56 24.88 9.85 25.82 21.18 37.3 6.01 31.77 21.09 39.46 14.71 35.8 22.59 34.4 25 1.13 20.31"></polygon>
                        <polygon id="Shape" stroke="#5D76DD" stroke-width="1.57" fill="#5D76DD" fill-rule="nonzero" points="3.55 47.5 30.29 51.27 41.59 24.87 0 19"></polygon>
                        <polyline id="Shape" stroke="#1B1723" stroke-width="1.5" points="36.28 23.53 39.63 17.01 32.31 23.09 37.57 8.72 26.78 22.19 25.74 12.39 22.01 21.63 22.22 3 14.88 20.63 11.23 12.11 9.34 19.85 4.05 5.77 3 18.95"></polyline>
                        <polygon id="Shape" stroke="#1B1723" stroke-width="1.5" points="4.38 46.14 29.84 49.74 40.61 24.59 1 19"></polygon>
                        <path d="M2,28 L36.06,32.81" id="Shape" stroke="#1B1723" stroke-width="1.5"></path>
                    </g>
                    <g id="pizza" transform="translate(778.000000, 570.000000)">
                        <path d="M45.0963311,18.7907172 C45.2723515,18.9996364 45.361796,19.2679697 45.3463311,19.5407172 C45.3306968,19.8325186 45.1882082,20.1028817 44.9563311,20.2807172 C36.2167469,31.9330831 24.8388896,41.3472319 11.7563311,47.7507172 C11.5460063,47.9450367 11.2624694,48.039869 10.977559,48.0111868 C10.6926487,47.9825045 10.4337034,47.8330599 10.2663311,47.6007172 C10.1752999,47.4749758 10.1106683,47.332106 10.0763311,47.1807172 L9.07633113,42.6807172 L6.88633113,32.6807172 L0.0463311335,1.30071725 C-0.0761955342,0.912116041 0.0493072572,0.488035052 0.36358407,0.228701739 C0.677860882,-0.0306315751 1.11805496,-0.0733493987 1.47633113,0.120717248 L5.47633113,1.81071725 L13.7763311,5.35071725 L44.7063311,18.5107172 C44.8583763,18.5687188 44.9927595,18.665199 45.0963311,18.7907172 Z" id="Shape" stroke="#86EDDF" stroke-width="1.57" fill="#86EDDF" fill-rule="nonzero"></path>
                        <circle id="Oval" stroke="#FFA4F6" stroke-width="1.51" fill="#FFA4F6" fill-rule="nonzero" cx="40" cy="25" r="4"></circle>
                        <path d="M46.75,17.0949746 C45.38,17.7649746 37.88,29.1649746 29.75,35.7549746 C23.678557,40.6723629 16.9460217,44.7118841 9.75,47.7549746 C9.32575721,48.1092385 9.05664061,48.6151777 9,49.1649746 C9,49.7049746 10.66,55.4149746 13.36,56.1649746 C16.06,56.9149746 27.92,49.6249746 35.05,44.0649746 C43.9,37.1549746 53.54,23.8049746 53.62,22.9649746 C53.6725604,22.4128134 53.5034805,21.8624043 53.15,21.4349746 C51.48,19.5449746 48.12,16.4149746 46.75,17.0949746 Z" id="Shape" stroke="#5D76DD" stroke-width="1.57" fill="#5D76DD" fill-rule="nonzero"></path>
                        <circle id="Oval" stroke="#FFA4F6" stroke-width="1.5" fill="#FFA4F6" fill-rule="nonzero" cx="22" cy="20" r="5"></circle>
                        <path d="M13.1,33.8795181 C14.3761435,35.423913 14.657905,37.5615993 13.8255164,39.3839129 C12.9931278,41.2062265 11.1928791,42.3929011 9.19,42.4395181 L7,32.4395181 C9.12699186,31.5060449 11.6150144,32.0933814 13.1,33.8795181 Z" id="Shape" stroke="#FFA4F6" stroke-width="1.57" fill="#FFA4F6" fill-rule="nonzero"></path>
                        <path d="M14.3497666,4.54 C14.2211852,5.74676449 13.6209292,6.85382339 12.6797666,7.62 C10.8075678,9.14085945 8.08895892,9.00151208 6.38207227,7.29719992 C4.67518561,5.59288775 4.53173484,2.87449235 6.0497666,1 L14.3497666,4.54 Z" id="Shape" stroke="#FFA4F6" stroke-width="1.57" fill="#FFA4F6" fill-rule="nonzero"></path>
                        <path d="M45.0823673,18.9701911 C45.2587766,19.1753514 45.3445197,19.4432412 45.320023,19.7127052 C45.2955263,19.9821693 45.1628807,20.2302056 44.9523673,20.4001911 C36.5937939,31.5429226 25.7130284,40.545685 13.2023673,46.6701911 C12.9916336,46.848461 12.7165864,46.9316989 12.4423673,46.9001911 C12.1823984,46.8680605 11.9454159,46.7352067 11.7823673,46.5301911 C11.6932126,46.4070407 11.6286964,46.2678217 11.5923673,46.1201911 L10.6623673,41.8201911 L8.57236734,32.2101911 L2.02236734,2.21019109 C1.9438382,1.84490604 2.07549655,1.46631126 2.3637312,1.22857027 C2.65196585,0.990829287 3.04869366,0.933601909 3.39236734,1.08019109 L7.18236734,2.70019109 L15.1223673,6.08019109 L44.7223673,18.6901911 C44.861095,18.7565687 44.9838838,18.8520711 45.0823673,18.9701911 Z" id="Shape" stroke="#1B1723" stroke-width="1.5"></path>
                        <circle id="Oval" stroke="#1B1723" stroke-width="1.51" cx="40" cy="25" r="4"></circle>
                        <path d="M46.16,18.0882262 C44.84,18.7282262 37.68,29.6382262 29.88,35.9382262 C24.058729,40.6405085 17.6056556,44.5015806 10.71,47.4082262 C10.3102831,47.7557922 10.0566769,48.2415731 10,48.7682262 C10,49.2782262 11.58,54.7682262 14.17,55.4882262 C16.76,56.2082262 28.09,49.2382262 34.91,43.9182262 C43.38,37.3182262 52.59,24.5482262 52.67,23.7482262 C52.7218351,23.2178427 52.5598541,22.6887048 52.22,22.2782262 C50.68,20.4382262 47.47,17.4482262 46.16,18.0882262 Z" id="Shape" stroke="#1B1723" stroke-width="1.5" fill="#5D76DD" fill-rule="nonzero"></path>
                        <circle id="Oval" stroke="#1B1723" stroke-width="1.5" cx="22" cy="21" r="5"></circle>
                        <path d="M13.83,33.8314762 C15.0480317,35.3082982 15.3159378,37.3509389 14.5199417,39.0919142 C13.7239457,40.8328894 12.0037887,41.9665624 10.09,42.0114762 L8,32.4014762 C10.0451182,31.528802 12.4208103,32.111519 13.83,33.8314762 Z" id="Shape" stroke="#1B1723" stroke-width="1.5"></path>
                        <path d="M14.9670529,6.33 C14.8583341,7.5043191 14.2816995,8.58550905 13.3670529,9.33 C11.5795075,10.8075879 8.96175737,10.6846511 7.32055737,9.04603976 C5.67935736,7.4074284 5.55228849,4.78987558 7.0270529,3 L14.9670529,6.33 Z" id="Shape" stroke="#1B1723" stroke-width="1.5"></path>
                    </g>
                    <g id="bike" transform="translate(140.000000, 566.000000)" stroke-linecap="round" stroke-linejoin="round">
                        <g id="Group" stroke-width="1.56">
                            <circle id="Oval" stroke="#FFA4F6" fill="#5D76DD" fill-rule="nonzero" cx="9.95" cy="25.95" r="9.95"></circle>
                            <circle id="Oval" stroke="#FFA4F6" fill="#5D76DD" fill-rule="nonzero" cx="41.95" cy="20.95" r="9.95"></circle>
                            <polygon id="Shape" stroke="#86EDDF" points="15.39 9 9 27 24.17 24.43"></polygon>
                            <polygon id="Shape" stroke="#86EDDF" points="24.63 24.19 33.29 6 16 8.59"></polygon>
                            <polyline id="Shape" stroke="#86EDDF" points="42 21.08 31 1.08 37.36 0"></polyline>
                            <path d="M12,4 L23.02,23.96" id="Shape" stroke="#86EDDF"></path>
                            <path d="M11.2559869,4.32 C10.6712051,4.41662231 10.1178194,4.02389697 10.0159869,3.44 C9.96681236,3.1586861 10.0321338,2.86938742 10.1974121,2.63649531 C10.3626903,2.4036032 10.6142094,2.24644479 10.8959869,2.2 L18.4959869,2 L11.2559869,4.32 Z" id="Shape" stroke="#FFA4F6" fill="#FFA4F6" fill-rule="nonzero"></path>
                        </g>
                        <g id="Group" transform="translate(2.000000, 2.000000)" stroke="#1B1723" stroke-width="1.5">
                            <circle id="Oval" cx="9.57" cy="24.57" r="9.57"></circle>
                            <circle id="Oval" cx="40.57" cy="19.57" r="9.57"></circle>
                            <polygon id="Shape" points="15.15 8 9 25.3 23.59 22.83"></polygon>
                            <polygon id="Shape" points="23.29 23.49 31.62 6 15 8.49"></polygon>
                            <polyline id="Shape" points="40.59 20.19 30 1 36.12 0"></polyline>
                            <path d="M12,3 L22.6,22.19" id="Shape"></path>
                            <path d="M10.2101735,3.23 C9.93843636,3.28503475 9.65604701,3.22478315 9.43043601,3.06363243 C9.20482501,2.90248172 9.05624452,2.65489772 9.02017346,2.38 C8.96506538,2.10977993 9.02399833,1.82879724 9.18303726,1.60349209 C9.34207619,1.37818695 9.5871008,1.22856307 9.86017346,1.19 L17.1801735,1 L10.2101735,3.23 Z" id="Shape" fill="#000000" fill-rule="nonzero"></path>
                        </g>
                    </g>
                    <g id="mug" transform="translate(87.000000, 724.000000)">
                        <path d="M44.3842024,8.9210382 L44.1642024,10.9210382 L41.6242024,32.5910382 C40.3842024,38.0210382 34.7942024,41.7710382 28.6242024,41.0610382 L10.7442024,39.0610382 C4.18420244,38.3110382 -0.61579756,32.7810382 0.0642024399,26.7710382 L2.64420244,4.2010382 C3.08424936,1.48503562 5.63597986,-0.365080717 8.35420244,0.0610381967 L39.7542024,3.6510382 C42.4776508,3.84872253 44.5388207,6.19480576 44.3842024,8.9210382 Z" id="Shape" stroke="#5D76DD" stroke-width="1.56" fill="#5D76DD" fill-rule="nonzero"></path>
                        <path d="M45.54,11 L44.95,16.18 C47.7493278,16.875551 49.5976954,19.5404929 49.2683186,22.4060711 C48.9389418,25.2716493 46.5341359,27.4477207 43.65,27.49 L43.18,31.58 C43.1403146,31.9463977 43.0802212,32.3102963 43,32.67 C48.6787576,32.8421361 53.5459128,28.6425156 54.2073133,22.9997797 C54.8687139,17.3570438 51.1046396,12.1457333 45.54,11 Z" id="Shape" stroke="#5D76DD" stroke-width="1.56" fill="#5D76DD" fill-rule="nonzero"></path>
                        <path d="M0.29420244,25 L0.0642024399,27 C-0.61579756,33 4.18420244,38.54 10.7442024,39.29 L28.6242024,41.29 C34.7842024,42 40.3742024,38.29 41.6242024,32.82 L41.9842024,29.74 L0.29420244,25 Z" id="Shape" stroke="#FFA4F6" stroke-width="1.56" fill="#FFA4F6" fill-rule="nonzero"></path>
                        <path d="M44.6628981,9.67783345 L44.4428981,11.5878335 L42.0028981,32.4278335 C40.8128981,37.6478335 35.4428981,41.2478335 29.5128981,40.5778335 L12.3228981,38.5778335 C6.01289809,37.8578335 1.40289809,32.5778335 2.06289809,26.7678335 L4.54289809,5.05783345 C4.95784534,2.43937938 7.41327008,0.650363179 10.0328981,1.05783345 L40.2128981,4.50783345 C41.48995,4.59981712 42.6776287,5.19715808 43.5128838,6.16755562 C44.3481389,7.13795316 44.7620339,8.40131686 44.6628981,9.67783345 Z" id="Shape" stroke="#1B1723" stroke-width="1.5"></path>
                        <path d="M44.44,12 L43.87,17 C46.5483484,17.6780356 48.312894,20.2317937 47.9997528,22.9768301 C47.6866116,25.7218665 45.3922433,27.8126022 42.63,27.87 L42.18,31.8 C42.1411391,32.153297 42.0810303,32.5039321 42,32.85 C47.4628245,33.0175153 52.1457452,28.9777743 52.7813058,23.5494619 C53.4168664,18.1211495 49.7937733,13.1089194 44.44,12.01 L44.44,12 Z" id="Shape" stroke="#1B1723" stroke-width="1.5"></path>
                        <path d="M3,25 L42.74,29.55" id="Shape" stroke="#1B1723" stroke-width="1.5"></path>
                    </g>
                    <g id="keyboard" transform="translate(1126.000000, 500.000000)" stroke-linecap="round" stroke-linejoin="round">
                        <g id="Group" fill-rule="nonzero">
                            <rect id="Rectangle-path" stroke="#86EDDF" stroke-width="1.56" fill="#86EDDF" transform="translate(30.057146, 30.057146) rotate(9.830000) translate(-30.057146, -30.057146) " x="4.05714598" y="4.05714598" width="52" height="52" rx="3"></rect>
                            <rect id="Rectangle-path" stroke="#5D76DD" stroke-width="1.73" fill="#5D76DD" transform="translate(29.478789, 35.947875) rotate(9.830000) translate(-29.478789, -35.947875) " x="3.47878934" y="19.1928751" width="52" height="33.51"></rect>
                            <circle id="Oval" stroke="#FFA4F6" stroke-width="1.36" fill="#FFA4F6" cx="16.64" cy="8.64" r="3.64"></circle>
                            <rect id="Rectangle-path" stroke="#FFA4F6" stroke-width="1.36" fill="#FFA4F6" transform="translate(42.493040, 13.338962) rotate(9.830000) translate(-42.493040, -13.338962) " x="30.2080399" y="11.0639619" width="24.57" height="4.55"></rect>
                        </g>
                        <rect id="Rectangle-path" stroke="#1B1723" stroke-width="1.5" transform="translate(29.901102, 29.901102) rotate(9.830000) translate(-29.901102, -29.901102) " x="4.9011019" y="4.9011019" width="50" height="50" rx="3"></rect>
                        <rect id="Rectangle-path" stroke="#1B1723" stroke-width="1.67" transform="translate(29.383353, 36.141619) rotate(9.830000) translate(-29.383353, -36.141619) " x="4.38335279" y="20.0316192" width="50" height="32.22"></rect>
                        <rect id="Rectangle-path" stroke="#1B1723" stroke-width="1.11" fill="#000000" fill-rule="nonzero" transform="translate(12.253057, 26.590592) rotate(9.830000) translate(-12.253057, -26.590592) " x="10.5880573" y="17.1455924" width="3.33" height="18.89"></rect>
                        <rect id="Rectangle-path" stroke="#1B1723" stroke-width="1.11" fill="#000000" fill-rule="nonzero" transform="translate(20.253057, 27.590592) rotate(9.830000) translate(-20.253057, -27.590592) " x="18.5880573" y="18.1455924" width="3.33" height="18.89"></rect>
                        <rect id="Rectangle-path" stroke="#1B1723" stroke-width="1.11" fill="#000000" fill-rule="nonzero" transform="translate(27.253057, 28.590592) rotate(9.830000) translate(-27.253057, -28.590592) " x="25.5880573" y="19.1455924" width="3.33" height="18.89"></rect>
                        <rect id="Rectangle-path" stroke="#1B1723" stroke-width="1.11" fill="#000000" fill-rule="nonzero" transform="translate(40.253057, 31.590592) rotate(9.830000) translate(-40.253057, -31.590592) " x="38.5880573" y="22.1455924" width="3.33" height="18.89"></rect>
                        <rect id="Rectangle-path" stroke="#1B1723" stroke-width="1.11" fill="#000000" fill-rule="nonzero" transform="translate(48.253057, 32.590592) rotate(9.830000) translate(-48.253057, -32.590592) " x="46.5880573" y="23.1455924" width="3.33" height="18.89"></rect>
                        <path d="M11.27,35 L9,48.14" id="Shape" stroke="#1B1723" stroke-width="1.67"></path>
                        <path d="M18.27,37 L16,50.14" id="Shape" stroke="#1B1723" stroke-width="1.67"></path>
                        <path d="M26.28,38 L24,51.14" id="Shape" stroke="#1B1723" stroke-width="1.67"></path>
                        <path d="M35.5,20 L30,51.75" id="Shape" stroke="#1B1723" stroke-width="1.67"></path>
                        <path d="M39.28,40 L37,53.14" id="Shape" stroke="#1B1723" stroke-width="1.67"></path>
                        <path d="M47.28,42 L45,55.14" id="Shape" stroke="#1B1723" stroke-width="1.67"></path>
                        <circle id="Oval" stroke="#1B1723" stroke-width="1.31" cx="17.5" cy="9.5" r="3.5"></circle>
                        <rect id="Rectangle-path" stroke="#1B1723" stroke-width="1.3158818" transform="translate(48.069150, 16.176650) rotate(9.743641) translate(-48.069150, -16.176650) " x="36.2011016" y="13.9768171" width="23.7360968" height="4.39966585"></rect>
                    </g>
                    <g id="sewing" transform="translate(458.000000, 115.000000)" stroke-linecap="round" stroke-linejoin="round">
                        <path d="M26.400997,35.7353883 C27.7391042,37.4748679 29.4927794,38.8502995 31.500997,39.7353883 C32.330997,40.1053883 38.330997,42.6753883 44.110997,39.7353883 C44.410997,39.5753883 51.630997,35.7353883 51.460997,28.1853883 C51.320997,21.8853883 46.100997,18.3153883 45.160997,17.6753883 C44.220997,17.0353883 39.270997,13.6753883 33.610997,15.5753883 C32.940997,15.8053883 27.520997,17.7253883 26.250997,22.9353883 C24.940997,28.3353883 28.960997,33.7653883 33.610997,35.5353883 C34.440997,35.8553883 39.610997,37.7053883 43.060997,34.4853883 C45.0449708,32.5992419 45.8490483,29.7849705 45.160997,27.1353883 C44.3809938,24.6262822 42.4186143,22.6601648 39.910997,21.8753883" id="Shape" stroke="#86EDDF" stroke-width="1.23"></path>
                        <g id="Group" transform="translate(0.000000, 26.000000)" stroke="#86EDDF" stroke-width="1.23">
                            <path d="M9,10.47 C9.48791991,10.2771062 9.98924743,10.1200236 10.5,10" id="Shape"></path>
                            <path d="M13.6579634,9.83539515 C16.0958977,10.048453 18.2654896,11.4673211 19.4379634,13.6153951 C20.9779634,16.7353951 19.3479634,20.5453951 17.1379634,22.3953951 C12.9079634,25.9453951 4.79796343,23.8153951 1.58796343,18.8653951 C-0.992036567,14.8653951 0.287963433,10.3153951 0.537963433,9.41539515 C1.68796968,5.70093968 4.35903495,2.64829365 7.88796343,1.01539515 C11.2570393,-0.338465049 15.0188875,-0.338465049 18.3879634,1.01539515 C21.9379634,2.38539515 23.5579634,4.64539515 25.1079634,7.01539515" id="Shape" stroke-dasharray="3.23"></path>
                            <path d="M26,9 C26.29,9.43 26.6,9.85 26.92,10.27" id="Shape"></path>
                        </g>
                        <polygon id="Shape" stroke="#FFA4F6" stroke-width="2" fill="#FFA4F6" fill-rule="nonzero" points="31.65 18.73 31.97 20.17 30.53 20.5 0 0"></polygon>
                        <polygon id="Shape" stroke="#1B1723" fill="#FFA4F6" fill-rule="nonzero" points="31.13 17.83 31.44 19.21 30.06 19.52 1 0"></polygon>
                    </g>
                    <g id="headphones" transform="translate(1324.000000, 222.000000)" stroke-linecap="round" stroke-linejoin="round">
                        <g id="Group" stroke-width="1.57">
                            <polyline id="Shape" stroke="#5D76DD" points="44.29 23 41.89 37.26 38 42.01"></polyline>
                            <polyline id="Shape" stroke="#5D76DD" points="2.12 36.02 0 30.26 2.41 16"></polyline>
                            <rect id="Rectangle-path" stroke="#FFA4F6" fill="#FFA4F6" fill-rule="nonzero" transform="translate(8.400073, 34.020013) rotate(9.570000) translate(-8.400073, -34.020013) " x="3.83507297" y="22.6000129" width="9.13" height="22.84" rx="3"></rect>
                            <rect id="Rectangle-path" stroke="#FFA4F6" fill="#FFA4F6" fill-rule="nonzero" transform="translate(33.400073, 38.020013) rotate(9.570000) translate(-33.400073, -38.020013) " x="28.835073" y="26.6000129" width="9.13" height="22.84" rx="3"></rect>
                            <path d="M44.4,22.7307702 L38.05,21.6607702 C39.32,14.1507702 33.61,7.94077025 25.59,6.59077025 L25.06,6.50077025 C17.06,5.14077025 9.61,9.14077025 8.34,16.6507702 L2,15.5807702 L2.15,14.6907702 C3.89,4.37077025 14.15,-1.51922975 25.15,0.340770248 L27.44,0.730770248 C38.44,2.59077025 46.25,11.5207702 44.51,21.8407702 L44.4,22.7307702 Z" id="Shape" stroke="#5D76DD" fill="#5D76DD" fill-rule="nonzero"></path>
                        </g>
                        <rect id="Rectangle-path" stroke="#1B1723" stroke-width="1.50673488" transform="translate(8.161900, 33.516500) rotate(9.743641) translate(-8.161900, -33.516500) " x="3.7873464" y="22.5826272" width="8.74910721" height="21.8677456" rx="3"></rect>
                        <rect id="Rectangle-path" stroke="#1B1723" stroke-width="1.5" transform="translate(32.104050, 37.457545) rotate(9.570000) translate(-32.104050, -37.457545) " x="27.7490504" y="26.5725453" width="8.71" height="21.77" rx="3"></rect>
                        <path d="M43.33,22.633619 L37.33,21.633619 C38.53,14.473619 33.09,8.54361902 25.44,7.26361902 L24.94,7.17361902 C17.29,5.88361902 10.21,9.70361902 9,16.853619 L3,15.853619 L3.14,15.013619 C4.8,5.17361902 14.6,-0.446380982 25.14,1.32361902 L27.31,1.69361902 C37.83,3.46361902 45.25,11.983619 43.59,21.823619 L43.33,22.633619 Z" id="Shape" stroke="#1B1723" stroke-width="1.5"></path>
                    </g>
                    <g id="stars" transform="translate(683.000000, 733.000000)" stroke-linecap="round" stroke-linejoin="round">
                        <polygon id="Shape" stroke="#86EDDF" stroke-width="1.55" fill="#86EDDF" fill-rule="nonzero" points="21.75 20.8 27.09 4 32.43 17.75 46.18 16.22 37.78 26.91 44.65 36.07 30.91 34.54 24.8 45.23 20.98 31.49 8 26.14"></polygon>
                        <polygon id="Shape" stroke="#FFA4F6" stroke-width="1.68" fill="#FFA4F6" fill-rule="nonzero" points="41.35 4.1 42.66 0 43.96 3.36 47.31 2.98 45.26 5.59 46.94 7.83 43.59 7.46 42.1 10.06 41.17 6.71 38 5.41"></polygon>
                        <polygon id="Shape" stroke="#FFA4F6" stroke-width="1.68" fill="#FFA4F6" fill-rule="nonzero" points="3.35 36.1 4.66 32 5.96 35.35 9.32 34.98 7.27 37.59 8.94 39.82 5.59 39.45 4.1 42.06 3.17 38.7 0 37.4"></polygon>
                        <polygon id="Shape" stroke="#FFA4F6" stroke-width="1.68" fill="#FFA4F6" fill-rule="nonzero" points="49.35 25.1 50.66 21 51.96 24.36 55.31 23.98 53.27 26.59 54.94 28.83 51.59 28.45 50.1 31.06 49.17 27.71 46 26.4"></polygon>
                        <polygon id="Shape" stroke="#1B1723" stroke-width="1.5" points="21.34 22.3 26.52 6 31.7 19.33 45.04 17.85 36.89 28.22 43.56 37.11 30.22 35.63 24.3 46 20.59 32.67 8 27.48"></polygon>
                        <polygon id="Shape" stroke="#1B1723" stroke-width="0.75" points="42 3.67 43.17 0 44.33 3 47.33 2.67 45.5 5 47 7 44 6.67 42.67 9 41.83 6 39 4.84"></polygon>
                        <polygon id="Shape" stroke="#1B1723" stroke-width="0.75" points="3 35.67 4.17 32 5.33 35 8.33 34.67 6.5 37 8 39 5 38.67 3.67 41 2.83 38 0 36.83"></polygon>
                        <polygon id="Shape" stroke="#1B1723" stroke-width="0.75" points="50 24.67 51.17 21 52.34 24 55.34 23.67 53.5 26 55 28 52 27.67 50.67 30 49.84 27 47 25.84"></polygon>
                    </g>
                    <g id="moon" transform="translate(703.000000, 90.000000)" stroke-linecap="round" stroke-linejoin="round">
                        <path d="M38.1802503,37.21 C29.283013,37.2145479 21.0304055,32.5688047 16.4191781,24.9597683 C11.8079507,17.3507319 11.50876,7.88505994 15.6302503,0 C5.26808046,4.33420738 -1.02749114,14.9488766 0.138266618,26.1203101 C1.30402437,37.2917436 9.65541813,46.3779775 20.6891656,48.4794852 C31.7229131,50.5809928 42.8296121,45.2007828 48.0202503,35.24 C44.9040595,36.5450415 41.5586753,37.2147983 38.1802503,37.21 Z" id="Shape" stroke="#86EDDF" stroke-width="1.53" fill="#86EDDF" fill-rule="nonzero"></path>
                        <polygon id="Shape" stroke="#FFA4F6" stroke-width="1.53" fill="#FFA4F6" fill-rule="nonzero" points="23.05 10.73 24.24 7 25.42 10.05 28.48 9.71 26.61 12.09 28.14 14.12 25.08 13.78 23.73 16.16 22.88 13.11 20 11.92"></polygon>
                        <path d="M35.994825,37.1 C27.6034188,37.1003976 19.8211924,32.7180043 15.4708248,25.5423511 C11.1204573,18.3666978 10.8337996,9.43998248 14.714825,2 C4.95304309,6.09599148 -0.972071581,16.1041731 0.131552332,26.6327792 C1.23517625,37.1613853 9.10684275,45.7233681 19.5058033,47.706081 C29.9047639,49.6887939 40.3745955,44.6238842 45.274825,35.24 C42.33633,36.472157 39.1811932,37.1045443 35.994825,37.1 Z" id="Shape" stroke="#1B1723" stroke-width="1.44"></path>
                        <polygon id="Shape" stroke="#1B1723" stroke-width="0.96" points="22.88 11.52 24 8 25.12 10.88 28 10.56 26.24 12.8 27.68 14.72 24.8 14.4 23.52 16.64 22.72 13.76 20 12.64"></polygon>
                    </g>
                </g>
                <g id="Group" transform="translate(508.000000, 373.000000)">
                    <path d="M0,41.8 C0,21 16,5 37.5,5 C55.2,5 64.3,15.1 64.3,15.1 L56.2,28.3 C56.2,28.3 48.2,21 38.3,21 C24.6,21 18.1,31.1 18.1,41.4 C18.1,52 25.1,62.9 38.3,62.9 C49.1,62.9 57.3,54.1 57.3,54.1 L66.3,66.9 C66.3,66.9 56.2,78.9 37.5,78.9 C15.1,78.9 0,63 0,41.8 Z M117.1,77.7 L112.7,62.7 L90.4,62.7 L86.1,77.7 L68.1,77.7 L92.4,6.2 L110.8,6.2 L135.1,77.7 L117.1,77.7 Z M101.7,22.5 L101.5,22.5 C101.5,22.5 99.9,30.3 98.6,34.8 L94.5,48.7 L108.6,48.7 L104.6,34.8 C103.3,30.3 101.7,22.5 101.7,22.5 Z M143.1,77.7 L143.1,6.2 L168,6.2 C175.3,6.2 178.8,6.7 181.9,7.9 C190,11 195.1,18.3 195.1,28.7 C195.1,36.3 191.5,44.6 184.4,48.2 L184.4,48.4 C184.4,48.4 185.4,49.7 187.1,52.7 L201,77.7 L181.5,77.7 L168.8,53.6 L160.6,53.6 L160.6,77.7 L143.1,77.7 Z M160.6,38.6 L168.2,38.6 C173.8,38.6 177.3,35.5 177.3,29.8 C177.3,24.4 175.3,21.2 166.5,21.2 L160.6,21.2 L160.6,38.6 Z M211.3,77.7 L211.3,6.2 L236.2,6.2 C243.5,6.2 247,6.7 250.1,7.9 C258.2,11 263.3,18.3 263.3,28.7 C263.3,36.3 259.7,44.6 252.6,48.2 L252.6,48.4 C252.6,48.4 253.6,49.7 255.3,52.7 L269.2,77.7 L249.7,77.7 L237,53.6 L228.8,53.6 L228.8,77.7 L211.3,77.7 Z M228.8,38.6 L236.4,38.6 C242,38.6 245.5,35.5 245.5,29.8 C245.5,24.4 243.5,21.2 234.7,21.2 L228.8,21.2 L228.8,38.6 Z M279.5,77.7 L279.5,6.2 L297,6.2 L297,77.7 L279.5,77.7 Z M313.8,77.7 L313.8,6.2 L358.6,6.2 L358.6,21.2 L331.3,21.2 L331.3,34.2 L353.1,34.2 L353.1,49.2 L331.3,49.2 L331.3,62.7 L360,62.7 L360,77.7 L313.8,77.7 Z" id="CARRIE" fill="#86EDDF"></path>
                    <path d="M374,21.81 L374,0.36 L379.31,0.36 L385.25,10.38 C386.09,11.79 387.05,14.04 387.05,14.04 L387.11,14.04 C387.11,14.04 386.87,11.73 386.87,10.38 L386.87,0.36 L392.12,0.36 L392.12,21.81 L386.84,21.81 L380.87,11.82 C380.03,10.41 379.07,8.16 379.07,8.16 L379.01,8.16 C379.01,8.16 379.25,10.47 379.25,11.82 L379.25,21.81 L374,21.81 Z M396.69,10.95 C396.69,4.8 401.43,0 407.91,0 C414.39,0 419.13,4.8 419.13,10.95 C419.13,17.25 414.39,22.17 407.91,22.17 C401.43,22.17 396.69,17.25 396.69,10.95 Z M402.12,10.95 C402.12,14.61 404.7,17.37 407.91,17.37 C411.12,17.37 413.7,14.61 413.7,10.95 C413.7,7.44 411.12,4.8 407.91,4.8 C404.7,4.8 402.12,7.44 402.12,10.95 Z M422.23,10.95 C422.23,4.8 426.97,0 433.45,0 C439.93,0 444.67,4.8 444.67,10.95 C444.67,17.25 439.93,22.17 433.45,22.17 C426.97,22.17 422.23,17.25 422.23,10.95 Z M427.66,10.95 C427.66,14.61 430.24,17.37 433.45,17.37 C436.66,17.37 439.24,14.61 439.24,10.95 C439.24,7.44 436.66,4.8 433.45,4.8 C430.24,4.8 427.66,7.44 427.66,10.95 Z M374,48.81 L374,27.36 L379.31,27.36 L385.25,37.38 C386.09,38.79 387.05,41.04 387.05,41.04 L387.11,41.04 C387.11,41.04 386.87,38.73 386.87,37.38 L386.87,27.36 L392.12,27.36 L392.12,48.81 L386.84,48.81 L380.87,38.82 C380.03,37.41 379.07,35.16 379.07,35.16 L379.01,35.16 C379.01,35.16 379.25,37.47 379.25,38.82 L379.25,48.81 L374,48.81 Z M412.22,48.81 L410.9,44.31 L404.21,44.31 L402.92,48.81 L397.52,48.81 L404.81,27.36 L410.33,27.36 L417.62,48.81 L412.22,48.81 Z M407.6,32.25 L407.54,32.25 C407.54,32.25 407.06,34.59 406.67,35.94 L405.44,40.11 L409.67,40.11 L408.47,35.94 C408.08,34.59 407.6,32.25 407.6,32.25 Z M423.02,48.81 L423.02,27.36 L428.33,27.36 L434.27,37.38 C435.11,38.79 436.07,41.04 436.07,41.04 L436.13,41.04 C436.13,41.04 435.89,38.73 435.89,37.38 L435.89,27.36 L441.14,27.36 L441.14,48.81 L435.86,48.81 L429.89,38.82 C429.05,37.41 428.09,35.16 428.09,35.16 L428.03,35.16 C428.03,35.16 428.27,37.47 428.27,38.82 L428.27,48.81 L423.02,48.81 Z" id="NOO-NAN" fill="#FFA4F6"></path>
                </g>
            </g>
        </g>
    </g>
</svg>