<?xml version="1.0" encoding="UTF-8"?>
<svg width="1440px" height="825px" viewBox="0 0 1440 825" version="1.1" xmlns="http://www.w3.org/2000/svg" xmlns:xlink="http://www.w3.org/1999/xlink">
    <!-- Generator: Sketch 49 (51002) - http://www.bohemiancoding.com/sketch -->
    <title>Group</title>
    <desc>Created with Sketch.</desc>
    <defs></defs>
    <g id="Page-1" stroke="none" stroke-width="1" fill="none" fill-rule="evenodd">
        <g id="Home---Desktop">
            <g id="Home-Banner">
                <g id="Group">
                    <rect id="Rectangle" fill="#1B1723" x="0" y="0" width="1440" height="825"></rect>
                    <g id="name" transform="translate(498.000000, 335.000000)" fill="#FFFFFF">
                        <path d="M0.5,42.1 C0.5,21.3 16.5,5.3 38,5.3 C55.7,5.3 64.8,15.4 64.8,15.4 L56.7,28.6 C56.7,28.6 48.7,21.3 38.8,21.3 C25.1,21.3 18.6,31.4 18.6,41.7 C18.6,52.3 25.6,63.2 38.8,63.2 C49.6,63.2 57.8,54.4 57.8,54.4 L66.8,67.2 C66.8,67.2 56.7,79.2 38,79.2 C15.6,79.2 0.5,63.3 0.5,42.1 Z M117.6,78 L113.2,63 L90.9,63 L86.6,78 L68.6,78 L92.9,6.5 L111.3,6.5 L135.6,78 L117.6,78 Z M102.2,22.8 L102,22.8 C102,22.8 100.4,30.6 99.1,35.1 L95,49 L109.1,49 L105.1,35.1 C103.8,30.6 102.2,22.8 102.2,22.8 Z M143.6,78 L143.6,6.5 L168.5,6.5 C175.8,6.5 179.3,7 182.4,8.2 C190.5,11.3 195.6,18.6 195.6,29 C195.6,36.6 192,44.9 184.9,48.5 L184.9,48.7 C184.9,48.7 185.9,50 187.6,53 L201.5,78 L182,78 L169.3,53.9 L161.1,53.9 L161.1,78 L143.6,78 Z M161.1,38.9 L168.7,38.9 C174.3,38.9 177.8,35.8 177.8,30.1 C177.8,24.7 175.8,21.5 167,21.5 L161.1,21.5 L161.1,38.9 Z M211.8,78 L211.8,6.5 L236.7,6.5 C244,6.5 247.5,7 250.6,8.2 C258.7,11.3 263.8,18.6 263.8,29 C263.8,36.6 260.2,44.9 253.1,48.5 L253.1,48.7 C253.1,48.7 254.1,50 255.8,53 L269.7,78 L250.2,78 L237.5,53.9 L229.3,53.9 L229.3,78 L211.8,78 Z M229.3,38.9 L236.9,38.9 C242.5,38.9 246,35.8 246,30.1 C246,24.7 244,21.5 235.2,21.5 L229.3,21.5 L229.3,38.9 Z M280,78 L280,6.5 L297.5,6.5 L297.5,78 L280,78 Z M314.3,78 L314.3,6.5 L359.1,6.5 L359.1,21.5 L331.8,21.5 L331.8,34.5 L353.6,34.5 L353.6,49.5 L331.8,49.5 L331.8,63 L360.5,63 L360.5,78 L314.3,78 Z" id="CARRIE"></path>
                        <path d="M374.52,22 L374.52,0.55 L379.83,0.55 L385.77,10.57 C386.61,11.98 387.57,14.23 387.57,14.23 L387.63,14.23 C387.63,14.23 387.39,11.92 387.39,10.57 L387.39,0.55 L392.64,0.55 L392.64,22 L387.36,22 L381.39,12.01 C380.55,10.6 379.59,8.35 379.59,8.35 L379.53,8.35 C379.53,8.35 379.77,10.66 379.77,12.01 L379.77,22 L374.52,22 Z M397.21,11.14 C397.21,4.99 401.95,0.19 408.43,0.19 C414.91,0.19 419.65,4.99 419.65,11.14 C419.65,17.44 414.91,22.36 408.43,22.36 C401.95,22.36 397.21,17.44 397.21,11.14 Z M402.64,11.14 C402.64,14.8 405.22,17.56 408.43,17.56 C411.64,17.56 414.22,14.8 414.22,11.14 C414.22,7.63 411.64,4.99 408.43,4.99 C405.22,4.99 402.64,7.63 402.64,11.14 Z M422.75,11.14 C422.75,4.99 427.49,0.19 433.97,0.19 C440.45,0.19 445.19,4.99 445.19,11.14 C445.19,17.44 440.45,22.36 433.97,22.36 C427.49,22.36 422.75,17.44 422.75,11.14 Z M428.18,11.14 C428.18,14.8 430.76,17.56 433.97,17.56 C437.18,17.56 439.76,14.8 439.76,11.14 C439.76,7.63 437.18,4.99 433.97,4.99 C430.76,4.99 428.18,7.63 428.18,11.14 Z M374.52,47 L374.52,25.55 L379.83,25.55 L385.77,35.57 C386.61,36.98 387.57,39.23 387.57,39.23 L387.63,39.23 C387.63,39.23 387.39,36.92 387.39,35.57 L387.39,25.55 L392.64,25.55 L392.64,47 L387.36,47 L381.39,37.01 C380.55,35.6 379.59,33.35 379.59,33.35 L379.53,33.35 C379.53,33.35 379.77,35.66 379.77,37.01 L379.77,47 L374.52,47 Z M412.74,47 L411.42,42.5 L404.73,42.5 L403.44,47 L398.04,47 L405.33,25.55 L410.85,25.55 L418.14,47 L412.74,47 Z M408.12,30.44 L408.06,30.44 C408.06,30.44 407.58,32.78 407.19,34.13 L405.96,38.3 L410.19,38.3 L408.99,34.13 C408.6,32.78 408.12,30.44 408.12,30.44 Z M423.54,47 L423.54,25.55 L428.85,25.55 L434.79,35.57 C435.63,36.98 436.59,39.23 436.59,39.23 L436.65,39.23 C436.65,39.23 436.41,36.92 436.41,35.57 L436.41,25.55 L441.66,25.55 L441.66,47 L436.38,47 L430.41,37.01 C429.57,35.6 428.61,33.35 428.61,33.35 L428.55,33.35 C428.55,33.35 428.79,35.66 428.79,37.01 L428.79,47 L423.54,47 Z" id="NOO-NAN"></path>
                    </g>
                </g>
            </g>
        </g>
    </g>
</svg>